<svg width="25" height="18" viewBox="0 0 25 18" fill="none" xmlns="http://www.w3.org/2000/svg">
<g clip-path="url(#clip0_985_988)">
<path d="M1.36515 0.826385H23.6348C24.3876 0.830363 25 1.43296 25 2.1688V16.484C25 17.2218 24.3815 17.8264 23.6267 17.8264H1.36515C0.614421 17.8224 0 17.2198 0 16.484V2.1688C0 1.43296 0.612386 0.830363 1.36515 0.826385Z" fill="#FF9933"/>
<path d="M0 6.4924H25V12.1604H0V6.4924Z" fill="white"/>
<path d="M0 12.1604H25V16.484C25 17.2218 24.3815 17.8264 23.6267 17.8264H1.36515C0.614421 17.8224 0 17.2198 0 16.484V12.1604Z" fill="#128807"/>
<path d="M14.8193 9.32637C14.8193 8.07345 13.7817 7.05917 12.5 7.05917C11.2183 7.05917 10.1807 8.07345 10.1807 9.32637C10.1807 10.5773 11.2183 11.5936 12.5 11.5936C13.7817 11.5936 14.8193 10.5793 14.8193 9.32637Z" fill="#000088"/>
<path d="M14.5285 9.32637C14.5285 8.23056 13.6211 7.34357 12.5001 7.34357C11.3791 7.34357 10.4717 8.23056 10.4717 9.32637C10.4717 10.4222 11.3791 11.3092 12.5001 11.3092C13.6211 11.3092 14.5285 10.4222 14.5285 9.32637Z" fill="white"/>
<path d="M12.9049 9.32637C12.9049 9.10761 12.7239 8.92862 12.5001 8.92862C12.2763 8.92862 12.0952 9.10562 12.0952 9.32637C12.0952 9.54514 12.2763 9.72214 12.5001 9.72214C12.7239 9.72214 12.9049 9.54514 12.9049 9.32637Z" fill="#000088"/>
<path d="M14.6119 9.59884C14.62 9.54514 14.5793 9.49542 14.5244 9.48747C14.4695 9.47951 14.4186 9.51929 14.4105 9.57298C14.4023 9.62668 14.443 9.6764 14.4979 9.68435C14.5549 9.69032 14.6058 9.65253 14.6119 9.59884Z" fill="#000088"/>
<path d="M12.5001 11.3092L12.5693 10.1199L12.5001 9.5531L12.4309 10.1199L12.5001 11.3092Z" fill="#000088"/>
<path d="M14.4674 10.1239C14.4898 10.0742 14.4633 10.0145 14.4125 9.99462C14.3616 9.97274 14.3006 9.9986 14.2802 10.0483C14.2579 10.098 14.2843 10.1577 14.3352 10.1776C14.3881 10.1975 14.4471 10.1736 14.4674 10.1239Z" fill="black"/>
<path d="M11.9751 11.2416L12.3576 10.1099L12.441 9.54514L12.2233 10.0761L11.9751 11.2416Z" fill="black"/>
<path d="M14.1907 10.5952C14.2253 10.5515 14.2171 10.4898 14.1724 10.456C14.1276 10.4222 14.0646 10.4301 14.03 10.4739C13.9954 10.5177 14.0035 10.5793 14.0483 10.6131C14.093 10.6469 14.1561 10.637 14.1907 10.5952Z" fill="black"/>
<path d="M11.4849 11.0447L12.1542 10.0483L12.3841 9.52328L12.0342 9.97871L11.4849 11.0447Z" fill="black"/>
<path d="M13.7959 10.979C13.8407 10.9452 13.8488 10.8836 13.8142 10.8398C13.7796 10.7961 13.7166 10.7881 13.6718 10.8219C13.6271 10.8557 13.6189 10.9174 13.6535 10.9611C13.6881 11.0029 13.7532 11.0129 13.7959 10.979Z" fill="black"/>
<path d="M11.0657 10.7285L11.9751 9.93496L12.3352 9.48749L11.8774 9.8395L11.0657 10.7285Z" fill="black"/>
<path d="M13.3158 11.2515C13.3667 11.2296 13.3931 11.172 13.3707 11.1222C13.3483 11.0725 13.2893 11.0467 13.2385 11.0685C13.1876 11.0884 13.1612 11.1481 13.1836 11.1978C13.2039 11.2475 13.2629 11.2714 13.3158 11.2515Z" fill="black"/>
<path d="M10.7422 10.3188L11.8327 9.78183L12.2986 9.43976L11.7615 9.66449L10.7422 10.3188Z" fill="black"/>
<path d="M12.7786 11.3907C12.8336 11.3828 12.8722 11.333 12.8661 11.2793C12.858 11.2256 12.8071 11.1879 12.7522 11.1938C12.6972 11.2018 12.6586 11.2515 12.6647 11.3052C12.6708 11.3609 12.7217 11.3987 12.7786 11.3907Z" fill="black"/>
<path d="M10.5408 9.83949L11.735 9.59686L12.2762 9.38605L11.6984 9.4656L10.5408 9.83949Z" fill="black"/>
<path d="M12.2212 11.3907C12.2761 11.3987 12.327 11.3589 12.3351 11.3052C12.3432 11.2515 12.3026 11.2018 12.2476 11.1938C12.1927 11.1859 12.1418 11.2256 12.1337 11.2793C12.1276 11.335 12.1662 11.3847 12.2212 11.3907Z" fill="black"/>
<path d="M10.4717 9.32638L11.6883 9.39399L12.2681 9.32638L11.6883 9.25876L10.4717 9.32638Z" fill="black"/>
<path d="M11.6842 11.2515C11.735 11.2734 11.7961 11.2475 11.8164 11.1978C11.8368 11.1481 11.8123 11.0884 11.7615 11.0685C11.7106 11.0467 11.6496 11.0725 11.6292 11.1222C11.6089 11.172 11.6333 11.2296 11.6842 11.2515Z" fill="black"/>
<path d="M10.5408 8.81329L11.6984 9.18718L12.2762 9.26872L11.735 9.05592L10.5408 8.81329Z" fill="black"/>
<path d="M11.2021 10.979C11.2468 11.0129 11.3099 11.0049 11.3445 10.9611C11.3791 10.9174 11.3709 10.8557 11.3262 10.8219C11.2814 10.7881 11.2183 10.7961 11.1838 10.8398C11.1512 10.8836 11.1593 10.9452 11.2021 10.979Z" fill="black"/>
<path d="M10.7422 8.33398L11.7615 8.98829L12.2986 9.21302L11.8327 8.87095L10.7422 8.33398Z" fill="black"/>
<path d="M10.8094 10.5952C10.844 10.639 10.907 10.6469 10.9518 10.6131C10.9966 10.5793 11.0047 10.5177 10.9701 10.4739C10.9355 10.4301 10.8725 10.4222 10.8277 10.456C10.785 10.4878 10.7748 10.5515 10.8094 10.5952Z" fill="black"/>
<path d="M11.0657 7.92432L11.8774 8.8133L12.3352 9.1673L11.9751 8.71784L11.0657 7.92432Z" fill="black"/>
<path d="M10.5306 10.1239C10.553 10.1736 10.612 10.1995 10.6628 10.1776C10.7137 10.1557 10.7402 10.098 10.7178 10.0483C10.6954 9.9986 10.6364 9.97274 10.5855 9.99462C10.5347 10.0145 10.5103 10.0722 10.5306 10.1239Z" fill="black"/>
<path d="M11.4849 7.60809L12.0342 8.67407L12.3841 9.1295L12.1542 8.60646L11.4849 7.60809Z" fill="black"/>
<path d="M10.3883 9.59884C10.3964 9.65253 10.4473 9.69032 10.5022 9.68435C10.5572 9.6764 10.5958 9.62668 10.5897 9.57298C10.5816 9.51929 10.5307 9.4815 10.4758 9.48747C10.4188 9.49343 10.3802 9.54315 10.3883 9.59884Z" fill="black"/>
<path d="M11.9751 7.41119L12.2233 8.5786L12.441 9.10761L12.3576 8.5428L11.9751 7.41119Z" fill="black"/>
<path d="M10.3882 9.05391C10.3801 9.10761 10.4208 9.15733 10.4757 9.16528C10.5307 9.17324 10.5815 9.13346 10.5897 9.07976C10.5978 9.02607 10.5571 8.97635 10.5022 8.96839C10.4452 8.96243 10.3943 9.00021 10.3882 9.05391Z" fill="black"/>
<path d="M12.5001 7.34357L12.4309 8.53285L12.5001 9.09965L12.5693 8.53285L12.5001 7.34357Z" fill="black"/>
<path d="M10.5327 8.5289C10.5103 8.57862 10.5367 8.63829 10.5876 8.65817C10.6385 8.67806 10.6995 8.6542 10.7198 8.60448C10.7422 8.55476 10.7158 8.49509 10.6649 8.47521C10.612 8.45532 10.553 8.47918 10.5327 8.5289Z" fill="black"/>
<path d="M13.025 7.41119L12.6425 8.5428L12.5591 9.10761L12.7768 8.5786L13.025 7.41119Z" fill="black"/>
<path d="M10.8093 8.05953C10.7747 8.10328 10.7828 8.16494 10.8276 8.19874C10.8723 8.23255 10.9354 8.2246 10.97 8.18085C11.0046 8.13709 10.9964 8.07544 10.9517 8.04163C10.9069 8.00782 10.8439 8.01578 10.8093 8.05953Z" fill="black"/>
<path d="M13.5152 7.60809L12.8459 8.60646L12.616 9.1295L12.9659 8.67407L13.5152 7.60809Z" fill="black"/>
<path d="M11.204 7.67372C11.1593 7.70753 11.1511 7.76918 11.1857 7.81294C11.2203 7.85669 11.2834 7.86464 11.3281 7.83084C11.3729 7.79703 11.381 7.73537 11.3465 7.69162C11.3119 7.64787 11.2468 7.6419 11.204 7.67372Z" fill="black"/>
<path d="M13.9343 7.92432L13.0249 8.71784L12.6648 9.1673L13.1226 8.8133L13.9343 7.92432Z" fill="black"/>
<path d="M11.6842 7.40325C11.6333 7.42513 11.6089 7.4828 11.6292 7.53252C11.6516 7.58224 11.7106 7.6081 11.7615 7.58622C11.8123 7.56434 11.8388 7.50667 11.8164 7.45695C11.7961 7.40524 11.7371 7.38138 11.6842 7.40325Z" fill="black"/>
<path d="M14.2578 8.33398L13.1673 8.87095L12.7014 9.21302L13.2385 8.98829L14.2578 8.33398Z" fill="black"/>
<path d="M12.2212 7.26203C12.1662 7.26999 12.1276 7.31971 12.1337 7.3734C12.1418 7.4271 12.1927 7.46489 12.2476 7.45892C12.3026 7.45096 12.3432 7.40125 12.3351 7.34755C12.329 7.29385 12.2781 7.25408 12.2212 7.26203Z" fill="black"/>
<path d="M14.4593 8.81329L13.2651 9.05592L12.7239 9.26872L13.3017 9.18718L14.4593 8.81329Z" fill="black"/>
<path d="M12.7788 7.26203C12.7239 7.25408 12.673 7.29385 12.6649 7.34755C12.6567 7.40125 12.6974 7.45096 12.7523 7.45892C12.8073 7.46687 12.8581 7.4271 12.8663 7.3734C12.8724 7.31971 12.8337 7.268 12.7788 7.26203Z" fill="black"/>
<path d="M14.5284 9.32638L13.3118 9.25876L12.7319 9.32638L13.3118 9.39399L14.5284 9.32638Z" fill="black"/>
<path d="M13.3158 7.40325C13.2649 7.38137 13.2039 7.40723 13.1836 7.45695C13.1612 7.50667 13.1876 7.56633 13.2385 7.58622C13.2893 7.60611 13.3504 7.58224 13.3707 7.53252C13.3911 7.48081 13.3667 7.42314 13.3158 7.40325Z" fill="black"/>
<path d="M14.4593 9.83949L13.3017 9.4656L12.7239 9.38605L13.2651 9.59686L14.4593 9.83949Z" fill="black"/>
<path d="M13.7959 7.67371C13.7512 7.6399 13.6881 7.64786 13.6535 7.69161C13.6189 7.73536 13.6271 7.79702 13.6718 7.83082C13.7166 7.86463 13.7796 7.85668 13.8142 7.81293C13.8488 7.76917 13.8407 7.70752 13.7959 7.67371Z" fill="black"/>
<path d="M14.2578 10.3188L13.2385 9.66449L12.7014 9.43976L13.1673 9.78183L14.2578 10.3188Z" fill="black"/>
<path d="M14.1907 8.05953C14.1561 8.01578 14.093 8.00782 14.0483 8.04163C14.0035 8.07544 13.9954 8.13709 14.03 8.18085C14.0646 8.2246 14.1276 8.23255 14.1724 8.19874C14.2151 8.16494 14.2253 8.10129 14.1907 8.05953Z" fill="black"/>
<path d="M13.9343 10.7285L13.1226 9.8395L12.6648 9.48749L13.0249 9.93496L13.9343 10.7285Z" fill="black"/>
<path d="M14.4694 8.52888C14.447 8.47916 14.388 8.4533 14.3371 8.47518C14.2863 8.49706 14.2598 8.55473 14.2822 8.60445C14.3046 8.65417 14.3636 8.67804 14.4144 8.65815C14.4653 8.63826 14.4897 8.58059 14.4694 8.52888Z" fill="black"/>
<path d="M13.5152 11.0447L12.9659 9.97871L12.616 9.52328L12.8459 10.0483L13.5152 11.0447Z" fill="black"/>
<path d="M14.6117 9.05391C14.6036 9.00021 14.5527 8.96243 14.4978 8.96839C14.4429 8.97635 14.4042 9.02607 14.4103 9.07976C14.4184 9.13346 14.4693 9.17125 14.5242 9.16528C14.5812 9.15931 14.6199 9.1096 14.6117 9.05391Z" fill="black"/>
<path d="M13.025 11.2416L12.7768 10.0761L12.5591 9.54514L12.6425 10.1099L13.025 11.2416Z" fill="black"/>
</g>
<defs>
<clipPath id="clip0_985_988">
<rect width="25" height="17" fill="white" transform="translate(0 0.826385)"/>
</clipPath>
</defs>
</svg>
