<svg width="388" height="388" viewBox="0 0 388 388" fill="none" xmlns="http://www.w3.org/2000/svg">
<path d="M320.736 192.301C250.275 151.615 136.405 151.615 66.3945 192.301C-3.61625 232.986 -3.23601 298.946 67.2248 339.624C137.686 380.302 251.564 380.31 321.567 339.624C391.57 298.938 391.205 232.986 320.736 192.301Z" fill="#F5F5F5"/>
<path d="M346.181 263.84C351.381 260.845 359.777 260.845 364.945 263.84C370.113 266.835 370.082 271.701 364.883 274.704C359.684 277.707 351.287 277.707 346.119 274.704C340.951 271.701 340.982 266.859 346.181 263.84Z" fill="#E0E0E0"/>
<path d="M198.361 268.224L188.746 255.157C187.776 253.837 186.533 252.742 185.102 251.947C183.67 251.151 182.084 250.674 180.451 250.547L166.281 249.461L143.777 235.78L152.197 230.914C152.307 230.844 152.399 230.748 152.462 230.633C152.525 230.518 152.558 230.389 152.558 230.259C152.558 230.128 152.525 229.999 152.462 229.884C152.399 229.77 152.307 229.673 152.197 229.603L148.697 227.609C148.007 227.214 147.226 227.006 146.431 227.006C145.636 227.006 144.855 227.214 144.165 227.609L61.6376 275.325C61.527 275.395 61.436 275.492 61.3728 275.606C61.3097 275.721 61.2766 275.85 61.2766 275.981C61.2766 276.111 61.3097 276.24 61.3728 276.355C61.436 276.469 61.527 276.566 61.6376 276.636L65.052 278.607C65.7442 279.008 66.5298 279.219 67.3296 279.219C68.1293 279.219 68.9149 279.008 69.6072 278.607L105.427 257.919L127.629 270.653L130.531 278.825C131.424 281.333 133.072 283.503 135.247 285.039C137.423 286.574 140.02 287.398 142.683 287.399H163.402L177.463 295.516L211.437 275.767L198.361 268.224Z" fill="#E0E0E0"/>
<path d="M324.772 256.165C302.314 243.206 266.021 243.206 243.711 256.165C223.992 267.619 221.804 285.358 237.053 298.287C224.745 297.511 212.003 299.839 202.606 305.325C186.116 314.909 186.201 330.444 202.8 340.028C219.399 349.611 246.256 349.604 262.707 340.028C275.822 332.4 278.437 321.008 270.607 311.843C289.51 314.583 310.315 311.673 325.043 303.121C347.353 290.162 347.237 269.14 324.772 256.165Z" fill="#E0E0E0"/>
<path d="M64.0821 291.955C58.169 288.54 48.6086 288.54 42.7343 291.955C36.86 295.369 36.891 300.91 42.8042 304.324C48.7173 307.738 58.2776 307.738 64.1519 304.324C70.0262 300.91 70.003 295.369 64.0821 291.955Z" fill="#E0E0E0"/>
<path d="M121.653 24.7854L125.805 22.4109L126.061 113.156L126.053 113.164L92.5922 132.269L92.5767 127.52L92.3284 41.5238L121.653 24.7854Z" fill="#F0F0F0"/>
<path opacity="0.1" d="M121.902 110.774L121.653 24.7854L125.805 22.4109L126.061 113.156L126.053 113.164L121.886 110.782L121.902 110.774Z" fill="black"/>
<path opacity="0.2" d="M92.5767 127.52L121.886 110.782L126.053 113.164L92.5922 132.269L92.5767 127.52Z" fill="black"/>
<path d="M75.8617 50.9289L80.0133 48.5543L80.2693 139.3L80.2616 139.308L46.8005 158.413L46.7849 153.664L46.5366 67.6672L75.8617 50.9289Z" fill="#F0F0F0"/>
<path opacity="0.1" d="M76.1099 136.917L75.8616 50.9289L80.0132 48.5543L80.2693 139.3L80.2615 139.308L76.0944 136.925L76.1099 136.917Z" fill="black"/>
<path opacity="0.2" d="M46.7849 153.663L76.0944 136.925L80.2616 139.307L46.8004 158.413L46.7849 153.663Z" fill="black"/>
<path d="M218.405 75.7143C218.149 75.4427 217.901 75.1633 217.629 74.8762L217.466 74.69C217.055 74.2166 216.69 73.7355 216.271 73.2389L216.147 73.0759C215.837 72.6802 215.542 72.2999 215.247 71.8576L215.115 71.6791C214.836 71.2756 214.564 70.9031 214.3 70.453C214.23 70.3522 214.168 70.2513 214.106 70.1504C213.889 69.809 213.679 69.4675 213.478 69.1183C213.429 69.0487 213.385 68.9762 213.346 68.901C213.113 68.5053 212.888 68.125 212.671 67.6982L212.515 67.3878C212.345 67.0697 212.182 66.7437 212.019 66.4178L211.864 66.0919C211.662 65.6806 211.476 65.2694 211.289 64.8503L211.22 64.6718C211.057 64.2916 210.901 63.8958 210.754 63.5389L210.622 63.1974C210.451 62.7474 210.288 62.2973 210.141 61.8472C210.141 61.8472 210.141 61.7774 210.102 61.7386C209.947 61.273 209.807 60.8074 209.675 60.3418L209.605 60.0779C209.45 59.5347 209.318 58.9915 209.202 58.4561C209.202 58.3319 209.155 58.2155 209.124 58.0991L209.008 57.4628C209.008 57.3309 208.954 57.199 208.938 57.0593C208.938 56.842 208.868 56.6247 208.837 56.4074C208.806 56.1902 208.798 56.1514 208.783 56.0194C208.721 55.5538 208.682 55.0882 208.643 54.6304C208.643 54.5295 208.643 54.4286 208.643 54.3355C208.643 53.8622 208.597 53.3888 208.597 52.9232C208.597 52.605 208.597 52.2869 208.597 51.9842V51.635C208.597 51.4488 208.597 51.2548 208.643 51.0763C208.69 50.8978 208.643 50.8435 208.682 50.7271C208.721 50.6107 208.682 50.3702 208.744 50.1994C208.806 50.0287 208.791 49.9589 208.806 49.8425C208.822 49.7261 208.861 49.5243 208.892 49.3691C208.923 49.2139 208.946 49.1286 208.969 49.0044C208.992 48.8802 209.039 48.7173 209.07 48.5698C209.101 48.4224 209.14 48.337 209.171 48.2206C209.202 48.1042 209.249 47.949 209.295 47.8171L209.411 47.4757C209.458 47.3515 209.497 47.2196 209.551 47.0954C209.605 46.9713 209.644 46.8859 209.683 46.7773C209.722 46.6686 209.784 46.5367 209.838 46.4203C209.893 46.3039 209.939 46.2186 209.993 46.1177C210.048 46.0168 210.102 45.8926 210.164 45.784L210.335 45.5046L210.521 45.1865L210.707 44.9226C210.777 44.8295 210.839 44.7286 210.917 44.6355C210.995 44.5424 211.049 44.4726 211.119 44.3872C211.189 44.3018 211.258 44.2087 211.336 44.1234C211.414 44.038 211.483 43.9682 211.553 43.8906L211.786 43.65L212.019 43.4405L212.267 43.2232L212.515 43.037L212.779 42.843L213.035 42.6722C213.834 42.1734 214.714 41.8188 215.635 41.6246C213.889 43.5879 212.865 46.5755 212.849 50.4245C212.849 50.8901 212.849 51.3634 212.896 51.8368C212.896 51.9377 212.896 52.0308 212.896 52.1317C212.896 52.5895 212.973 53.0551 213.035 53.5207C213.035 53.6526 213.074 53.7846 213.09 53.9087C213.105 54.0329 213.152 54.3433 213.191 54.5606C213.229 54.7778 213.237 54.8554 213.268 55.0029L213.385 55.6392C213.385 55.7556 213.439 55.872 213.462 55.9962C213.579 56.5316 213.711 57.0748 213.858 57.618C213.888 57.7071 213.914 57.7978 213.936 57.8896C214.067 58.3474 214.207 58.813 214.362 59.2786C214.362 59.2786 214.362 59.3562 214.401 59.3873C214.549 59.8451 214.712 60.2952 214.882 60.7375C214.929 60.8539 214.968 60.9703 215.014 61.079C215.162 61.4592 215.317 61.855 215.48 62.2119L215.55 62.3904C215.736 62.8094 215.922 63.2207 216.124 63.632C216.17 63.7406 216.225 63.8493 216.279 63.9579C216.442 64.2838 216.605 64.6098 216.776 64.9357L216.931 65.2383C217.148 65.6418 217.373 66.0143 217.606 66.4411C217.645 66.5187 217.691 66.5886 217.738 66.6662C217.94 67.0076 218.149 67.3568 218.367 67.6982L218.553 67.9931C218.824 68.4044 219.096 68.8157 219.375 69.2192L219.507 69.3977C219.802 69.8167 220.097 70.2202 220.407 70.6238L220.532 70.7867C220.92 71.2834 221.308 71.7645 221.727 72.2378L221.882 72.4241L222.658 73.2699L222.704 73.3165C222.976 73.6036 223.255 73.8907 223.535 74.1623C223.589 74.2244 223.651 74.2787 223.713 74.3408C224.078 74.69 224.443 75.0392 224.823 75.3729L224.924 75.466C225.312 75.8074 225.7 76.1256 226.103 76.4438L226.336 76.6222C226.724 76.9249 227.112 77.212 227.531 77.4914L227.741 77.631C228.167 77.9104 228.594 78.182 229.021 78.407C229.448 78.6321 229.712 78.7873 230.053 78.9658L230.34 79.1054L231.116 79.4624L231.388 79.5788L232.102 79.8504L232.28 79.9125C232.575 80.0134 232.87 80.1065 233.157 80.1841L233.669 80.3082L233.902 80.3703C234.15 80.4246 234.391 80.4634 234.631 80.5022C234.991 80.5607 235.354 80.597 235.718 80.6109H235.935C236.253 80.6109 236.564 80.6109 236.874 80.6109H237.029C237.276 80.5948 237.522 80.5663 237.767 80.5255H237.992L238.224 80.4712C237.649 81.126 236.97 81.6818 236.215 82.1163L236.137 82.1551H236.083C235.889 82.2638 235.687 82.3569 235.485 82.45L235.276 82.5354C235.063 82.6233 234.846 82.7009 234.624 82.7682H234.507C234.251 82.838 233.987 82.9001 233.731 82.9466H233.522C233.281 82.9466 233.048 83.0087 232.8 83.032H232.614C232.311 83.032 232.001 83.032 231.69 83.032H231.489H230.977L230.387 82.9622L230.014 82.8923L229.657 82.8225L229.44 82.7682H229.378L228.92 82.6595C228.633 82.5742 228.346 82.4888 228.059 82.3879L227.88 82.3258L227.159 82.0542L226.903 81.9456C226.644 81.837 226.385 81.7206 226.127 81.5964L225.956 81.511C225.912 81.495 225.871 81.4742 225.832 81.449C225.49 81.2782 225.149 81.0998 224.8 80.898C224.45 80.6962 223.946 80.3781 223.527 80.122H223.465L223.31 80.0211C222.906 79.7418 222.534 79.4546 222.115 79.152L221.967 79.0356L221.882 78.9735C221.486 78.6553 221.106 78.3294 220.702 77.9958C220.68 77.9771 220.659 77.9563 220.64 77.9337H220.601C220.221 77.6078 219.825 77.2586 219.492 76.9094L219.313 76.7309C219.034 76.4593 218.755 76.1722 218.483 75.885L218.405 75.7143Z" fill="#EBEBEB"/>
<path d="M237.999 66.8602V67.8612L240.816 69.483V68.482L237.999 66.8602Z" fill="white"/>
<path d="M215.224 45.815L214.789 46.4203L217.226 49.4545L217.66 48.8414L215.224 45.815Z" fill="white"/>
<path d="M243.198 70.3599C243.198 80.6574 235.881 84.809 226.902 79.6719C217.924 74.5348 210.723 61.9248 210.746 51.6273C210.769 41.3298 218.064 37.1782 227.042 42.3153C236.02 47.4524 243.23 60.0624 243.198 70.3599ZM219.608 60.4194C219.676 60.6373 219.819 60.8241 220.012 60.947C220.063 60.9791 220.122 60.9977 220.182 61.0014L227.073 61.5446C227.121 61.5585 227.172 61.5561 227.218 61.5378C227.265 61.5196 227.304 61.4865 227.329 61.4437L231.838 53.8001C231.879 53.6653 231.883 53.5219 231.849 53.3852C231.814 53.2485 231.744 53.1236 231.644 53.0241C231.589 52.9595 231.523 52.9045 231.45 52.8611C231.295 52.7758 231.139 52.7835 231.062 52.9154L226.631 60.4349L219.841 59.8994C219.624 59.8994 219.515 60.1167 219.608 60.4271M232.862 53.6759L234.274 51.6894L233.498 50.7582L232.14 52.768L232.916 53.6992M233.498 78.8261L234.274 78.764L232.8 75.1168L232.024 75.1789L233.421 78.795M215.177 62.5844L217.622 62.3749L217.195 61.2574L214.743 61.467L215.177 62.5844ZM238.721 76.1799L239.156 75.5669L236.719 72.5327L236.284 73.1458L238.721 76.1799ZM215.224 45.784L214.789 46.3893L217.226 49.4234L217.66 48.8104L215.224 45.784ZM236.758 60.7298L239.202 60.5202L238.768 59.4106L236.323 59.6123L236.758 60.7298ZM220.462 43.1922L219.686 43.2542L221.082 46.8704L221.858 46.8083L220.454 43.1922M220.384 71.2368L221.804 69.2425L221.028 68.319L219.608 70.3056L220.384 71.2368ZM215.945 55.096V54.126L213.128 52.5042V53.4974L215.945 55.127M240.816 68.4898L237.999 66.8602V67.8612L240.816 69.483V68.4898ZM226.499 76.6533L227.36 77.1499V73.914L226.499 73.4096V76.6533ZM227.453 45.3339L226.592 44.8373V48.112L227.453 48.6164V45.3727" fill="#E0E0E0"/>
<path d="M226.584 44.8373L226.576 48.0732L227.438 48.5776L227.453 45.3339L226.584 44.8373Z" fill="white"/>
<path d="M233.56 50.7504L232.14 52.737L232.893 53.6682L234.305 51.6816L233.56 50.7504Z" fill="white"/>
<path d="M238.767 59.4106L236.323 59.6123L236.758 60.7298L239.202 60.5202L238.767 59.4106Z" fill="white"/>
<path d="M236.719 72.5327L236.284 73.1458L238.721 76.1799L239.155 75.5669L236.719 72.5327Z" fill="white"/>
<path d="M232.831 75.1168L232.078 75.1789L233.475 78.795L234.228 78.733L232.831 75.1168Z" fill="white"/>
<path d="M226.507 73.4096L226.499 76.6533L227.36 77.1499L227.368 73.914L226.507 73.4096Z" fill="white"/>
<path d="M221.059 68.319L219.639 70.3056L220.384 71.2368L221.804 69.2425L221.059 68.319Z" fill="white"/>
<path d="M217.187 61.2574L214.742 61.467L215.177 62.5844L217.621 62.3749L217.187 61.2574Z" fill="white"/>
<path d="M213.128 52.5042V53.4974L215.945 55.127V54.126L213.128 52.5042Z" fill="white"/>
<path d="M220.462 43.1922L219.717 43.2542L221.114 46.8704L221.866 46.8083L220.462 43.1922Z" fill="white"/>
<path d="M226.972 60.528C226.921 60.496 226.862 60.4773 226.802 60.4737H226.662L219.872 59.9382C219.655 59.9382 219.546 60.1555 219.639 60.4659C219.707 60.6838 219.85 60.8707 220.043 60.9936C220.094 61.0256 220.153 61.0443 220.213 61.0479L227.104 61.5911C227.322 61.5911 227.422 61.3816 227.329 61.0712C227.279 60.8531 227.153 60.6603 226.972 60.528Z" fill="white"/>
<path d="M231.481 52.8534C231.326 52.768 231.17 52.7758 231.093 52.9077L226.662 60.4271H226.802C226.862 60.4308 226.921 60.4494 226.972 60.4814C227.164 60.6032 227.305 60.7908 227.368 61.0091C227.461 61.3195 227.368 61.5523 227.143 61.529C227.191 61.5429 227.242 61.5406 227.288 61.5223C227.335 61.5041 227.374 61.4709 227.399 61.4282L231.908 53.7846C231.949 53.6498 231.952 53.5063 231.918 53.3696C231.884 53.2329 231.813 53.1081 231.714 53.0086C231.646 52.9431 231.567 52.8906 231.481 52.8534Z" fill="#F5F5F5"/>
<path d="M238.085 83.032L238.341 82.8302C238.437 82.7564 238.527 82.676 238.612 82.5897C238.698 82.5198 238.783 82.45 238.861 82.3724L239.117 82.1086L239.35 81.8602C239.436 81.7697 239.516 81.6738 239.59 81.5731C239.66 81.4878 239.738 81.4024 239.807 81.3093C239.877 81.2162 239.955 81.0998 240.025 80.9989C240.094 80.898 240.164 80.8126 240.226 80.7118C240.288 80.6109 240.366 80.4867 240.428 80.3703C240.49 80.2539 240.56 80.1686 240.614 80.0677C240.669 79.9668 240.739 79.8271 240.801 79.703L240.971 79.377L241.134 78.989C241.181 78.8726 241.235 78.764 241.282 78.6476C241.328 78.5312 241.383 78.3682 241.429 78.2286C241.476 78.0889 241.522 77.988 241.561 77.8716C241.6 77.7552 241.646 77.5767 241.685 77.4293C241.724 77.2818 241.763 77.181 241.794 77.049C241.825 76.9171 241.872 76.7464 241.903 76.5912L241.996 76.1877C241.996 76.0247 242.05 75.854 242.081 75.691L242.151 75.2875L242.221 74.7133L242.267 74.3486L242.314 73.689V73.3708C242.314 73.0397 242.314 72.6983 242.314 72.3465C242.314 71.8421 242.314 71.3377 242.267 70.7945C242.264 70.7609 242.264 70.7271 242.267 70.6936C242.228 70.1271 242.182 69.5529 242.104 68.9709V68.7769L241.965 67.8379C241.965 67.6827 241.91 67.5275 241.879 67.3646C241.833 67.1395 241.794 66.9067 241.747 66.6739V66.5653C241.474 65.2686 241.127 63.9887 240.708 62.7318C240.147 61.0406 239.473 59.3891 238.69 57.7887L238.643 57.6878C238.193 56.7799 237.72 55.8798 237.208 55.0029L237.068 54.7623C236.835 54.3666 236.595 53.9863 236.354 53.5983L236.183 53.3267C235.516 52.2946 234.818 51.3014 234.073 50.3469C233.343 49.4105 232.567 48.5129 231.745 47.6542C231.442 47.3282 231.132 47.0178 230.821 46.6997L230.666 46.56C230.263 46.1565 229.851 45.784 229.424 45.396H229.378C228.943 45.008 228.493 44.62 228.043 44.2786L227.803 44.0846C227.376 43.7586 226.949 43.4482 226.507 43.1534L226.46 43.1146C226.181 42.9283 225.901 42.7421 225.622 42.5714C225.343 42.4006 225.141 42.2687 224.893 42.129C224.52 41.9118 224.117 41.7178 223.783 41.5315C222.724 40.9901 221.614 40.5535 220.469 40.2278L220.167 40.1502L219.686 40.0338L219.352 39.9718L218.902 39.8942H218.863H218.537L217.963 39.8321H217.916H217.738C217.322 39.8088 216.905 39.8088 216.489 39.8321H216.31C216.046 39.8321 215.782 39.8786 215.534 39.9174C215.167 39.9703 214.804 40.0481 214.448 40.1502H214.386H214.316C214.075 40.2278 213.842 40.3132 213.61 40.4063L213.501 40.4529C213.183 40.5926 212.865 40.74 212.562 40.9107L216.861 38.412L216.954 38.3577L217.071 38.2956C217.28 38.187 217.497 38.0783 217.715 37.9852C217.754 37.9614 217.796 37.9407 217.839 37.9231H217.94C218.198 37.8197 218.457 37.7265 218.716 37.6438C219.004 37.561 219.297 37.4936 219.593 37.442H219.693H219.833C220.09 37.3963 220.349 37.3652 220.609 37.3489H220.741H220.78C221.118 37.3294 221.458 37.3294 221.796 37.3489H221.897H222.231H222.464C222.697 37.3489 222.937 37.3954 223.178 37.4342L223.954 37.5817L224.202 37.6438L224.706 37.7679H224.753C225.063 37.8533 225.382 37.9464 225.7 38.055L225.894 38.1326C226.15 38.218 226.406 38.3189 226.67 38.4275L226.778 38.4663L226.972 38.5517C227.244 38.6681 227.523 38.8 227.803 38.9319L228.121 39.0871C228.486 39.2734 228.897 39.4674 229.23 39.6846C229.564 39.9019 230.154 40.2434 230.612 40.5538L230.845 40.709C231.279 41.0038 231.714 41.3142 232.14 41.6402L232.381 41.8342C232.816 42.1756 233.242 42.5248 233.661 42.8973C233.701 42.9268 233.738 42.9606 233.77 42.9982C234.181 43.3551 234.546 43.7276 234.973 44.1156L235.089 44.2242L235.167 44.3018C235.47 44.5967 235.764 44.8994 236.059 45.2175L236.106 45.2641C236.385 45.5667 236.657 45.8694 236.928 46.1798L237.006 46.2651L237.099 46.3815C237.541 46.8937 237.976 47.4136 238.395 47.9335V47.9801C238.429 48.0196 238.46 48.061 238.488 48.1042C238.824 48.5388 239.15 48.9811 239.466 49.4312L239.567 49.5631C239.583 49.5847 239.596 49.6081 239.606 49.633C239.916 50.0598 240.211 50.5021 240.498 50.9522C240.522 50.9965 240.551 51.0381 240.583 51.0763L240.7 51.2781C240.933 51.6428 241.158 52.0541 241.383 52.3878L241.484 52.5585C241.486 52.5817 241.486 52.6051 241.484 52.6283C241.74 53.0629 241.98 53.4974 242.213 53.932L242.267 54.0406L242.384 54.2579L242.919 55.3133C242.919 55.3831 242.989 55.4607 243.028 55.5306C243.067 55.6004 243.067 55.6237 243.09 55.6625C243.299 56.1126 243.509 56.5626 243.703 57.0127C243.718 57.0605 243.736 57.1072 243.757 57.1524C243.936 57.5637 244.099 57.975 244.262 58.3862C244.262 58.4561 244.316 58.5182 244.347 58.588C244.378 58.6578 244.386 58.6966 244.401 58.7587C244.588 59.2398 244.766 59.7287 244.929 60.2176V60.303C245.1 60.8203 245.255 61.3376 245.395 61.855L245.449 62.049C245.452 62.0825 245.452 62.1163 245.449 62.1498C245.604 62.7396 245.752 63.3216 245.876 63.9036C245.879 63.9553 245.879 64.0071 245.876 64.0588L245.922 64.2916C245.969 64.5166 246.008 64.7494 246.054 64.9745C246.101 65.1995 246.108 65.2926 246.14 65.4556C246.171 65.6186 246.209 65.929 246.24 66.1618C246.24 66.2704 246.279 66.379 246.295 66.4954C246.291 66.5238 246.291 66.5525 246.295 66.5808C246.357 67.0852 246.403 67.5896 246.442 68.0862C246.442 68.1949 246.442 68.2958 246.442 68.4044C246.442 68.9166 246.496 69.421 246.496 69.9564C246.496 75.4893 244.525 79.377 241.383 81.2084L237.084 83.7071L237.355 83.5286C237.448 83.4743 237.541 83.42 237.627 83.3579L238.085 83.032Z" fill="#EBEBEB"/>
<path d="M207.285 52.1162C207.285 63.244 215.045 76.8007 224.768 82.3802C229.781 85.2746 234.313 85.4842 237.518 83.4278C237.611 83.3734 237.704 83.3191 237.79 83.257L238.085 83.0398L238.341 82.838C238.437 82.7642 238.527 82.6838 238.612 82.5974C238.698 82.5276 238.783 82.4578 238.861 82.3802L239.117 82.1163L239.349 81.868C239.436 81.7775 239.516 81.6816 239.59 81.5809C239.66 81.4955 239.737 81.4102 239.807 81.317C239.877 81.2239 239.955 81.1075 240.025 81.0066C240.094 80.9058 240.164 80.8204 240.226 80.7195C240.288 80.6186 240.366 80.4945 240.428 80.3781C240.49 80.2617 240.56 80.1763 240.614 80.0754C240.669 79.9746 240.739 79.8349 240.801 79.7107L240.971 79.3848L241.134 78.9968C241.181 78.8804 241.235 78.7718 241.282 78.6554C241.328 78.539 241.383 78.376 241.429 78.2363C241.476 78.0966 241.522 77.9958 241.561 77.8794C241.6 77.763 241.646 77.5845 241.685 77.437C241.724 77.2896 241.763 77.1887 241.794 77.0568C241.825 76.9249 241.871 76.7542 241.903 76.599L241.996 76.1954C241.996 76.0325 242.05 75.8618 242.081 75.6988L242.151 75.2953L242.221 74.721L242.267 74.3563L242.314 73.6967V73.3786C242.314 73.0475 242.314 72.706 242.314 72.3542C242.314 71.8498 242.314 71.3454 242.267 70.8022V70.7014C242.228 70.1349 242.182 69.5606 242.104 68.9786V68.7846L241.965 67.8457C241.965 67.6905 241.91 67.5353 241.879 67.3723C241.848 67.2094 241.794 66.9145 241.747 66.6817V66.573C241.474 65.2764 241.127 63.9965 240.707 62.7396C240.147 61.0483 239.473 59.3969 238.69 57.7965L238.643 57.6956C238.193 56.7877 237.72 55.8875 237.208 55.0106L237.068 54.7701C236.835 54.3743 236.595 53.9941 236.354 53.6061L236.183 53.3345C235.516 52.3024 234.818 51.3091 234.073 50.3546C233.343 49.4183 232.567 48.5207 231.745 47.6619C231.442 47.336 231.132 47.0256 230.821 46.7074L230.666 46.5678C230.263 46.1642 229.851 45.7918 229.424 45.4038H229.378C228.943 45.0158 228.493 44.6278 228.043 44.2863C227.957 44.226 227.874 44.1612 227.795 44.0923C227.368 43.7664 226.941 43.456 226.499 43.1611L226.452 43.1223C226.173 42.9361 225.894 42.7498 225.614 42.5791C225.335 42.4084 225.133 42.2765 224.885 42.1368C224.512 41.9195 224.109 41.7255 223.775 41.5393C222.716 40.9979 221.606 40.5613 220.462 40.2356L220.143 40.158L219.662 40.0416C219.546 40.0416 219.43 39.995 219.313 39.9718L218.863 39.8942L218.498 39.8476L217.924 39.7855H217.699C217.283 39.7622 216.866 39.7622 216.45 39.7855H216.248C215.984 39.7855 215.72 39.8321 215.472 39.8709C215.105 39.9237 214.742 40.0015 214.386 40.1037H214.254C214.013 40.1813 213.78 40.2666 213.547 40.3598L213.423 40.4063C213.105 40.546 212.787 40.6934 212.484 40.8642C209.264 42.68 207.301 46.56 207.285 52.1162ZM218.452 75.7686L218.405 75.7143C218.149 75.4427 217.901 75.1634 217.629 74.8762L217.466 74.69C217.055 74.2166 216.69 73.7355 216.271 73.2389L216.147 73.0759C215.837 72.6724 215.542 72.2999 215.247 71.8498L215.115 71.6714C214.836 71.2678 214.564 70.8954 214.3 70.4453C214.23 70.3444 214.168 70.2435 214.106 70.1426C213.889 69.809 213.679 69.4598 213.478 69.1106C213.429 69.041 213.385 68.9684 213.346 68.8933C213.113 68.4975 212.888 68.1173 212.671 67.6905L212.515 67.3801C212.345 67.0619 212.182 66.736 212.019 66.4101L211.864 66.0842C211.662 65.6729 211.476 65.2616 211.289 64.8426L211.219 64.6641C211.057 64.2838 210.901 63.8881 210.754 63.5311L210.622 63.1897C210.451 62.7396 210.288 62.2895 210.141 61.8394C210.141 61.8394 210.141 61.7696 210.102 61.7308C209.947 61.2652 209.807 60.7996 209.675 60.334L209.605 60.0702C209.45 59.527 209.318 58.9838 209.202 58.4483C209.202 58.3242 209.155 58.2078 209.124 58.0914L209.008 57.455C209.008 57.3231 208.954 57.1912 208.938 57.0515C208.923 56.9118 208.86 56.5937 208.829 56.3609C208.798 56.1281 208.791 56.1048 208.775 55.9729C208.713 55.5073 208.674 55.0417 208.635 54.5838C208.635 54.483 208.635 54.3821 208.635 54.289C208.635 53.8156 208.589 53.3422 208.589 52.8766C208.589 52.5585 208.589 52.2403 208.589 51.9377V51.5885C208.589 51.4022 208.589 51.2082 208.635 51.0298C208.682 50.8513 208.635 50.797 208.674 50.6806C208.713 50.5642 208.674 50.3236 208.736 50.1529C208.798 49.9822 208.783 49.9123 208.798 49.7959C208.814 49.6795 208.853 49.4778 208.884 49.3226C208.915 49.1674 208.938 49.082 208.961 48.9578C208.985 48.8337 209.031 48.6707 209.062 48.5233C209.093 48.3758 209.132 48.2905 209.163 48.1741C209.194 48.0577 209.241 47.9025 209.287 47.7706L209.404 47.4291C209.45 47.305 209.489 47.173 209.543 47.0489C209.598 46.9247 209.636 46.8394 209.675 46.7307C209.714 46.6221 209.776 46.4902 209.83 46.3738C209.885 46.2574 209.931 46.172 209.986 46.0711C210.04 45.9702 210.094 45.8461 210.156 45.7374L210.327 45.4581L210.513 45.1399L210.7 44.8761C210.769 44.783 210.831 44.6821 210.909 44.589C210.987 44.4958 211.041 44.426 211.111 44.3406C211.181 44.2553 211.251 44.1622 211.328 44.0768C211.406 43.9914 211.476 43.9216 211.545 43.844L211.778 43.6034L212.011 43.3939L212.259 43.1766L212.508 42.9904L212.771 42.7964L213.028 42.6257C213.826 42.1268 214.706 41.7722 215.627 41.5781C218.242 41.0194 221.408 41.6324 224.823 43.6034C233.778 48.7716 241.026 61.3118 240.995 71.6093C240.995 75.4893 239.963 78.4381 238.217 80.4014C237.641 81.0561 236.962 81.6119 236.207 82.0465L236.129 82.0853C235.912 82.2017 235.687 82.3103 235.462 82.4112L235.252 82.4966C235.04 82.5845 234.823 82.6621 234.6 82.7294H234.484C234.22 82.7992 233.949 82.8613 233.708 82.9156H233.498C233.258 82.9156 233.025 82.9777 232.777 83.001H232.591C232.288 83.001 231.97 83.001 231.652 83.001H231.45H230.938L230.348 82.9311L229.975 82.8613L229.618 82.7914C229.525 82.7914 229.432 82.7449 229.339 82.7216L228.881 82.613C228.28 82.4421 227.69 82.2374 227.112 81.9999L226.856 81.8913C226.538 81.7516 226.227 81.6119 225.909 81.449C225.866 81.433 225.824 81.4121 225.785 81.3869C225.444 81.2162 225.102 81.0377 224.753 80.8359C224.404 80.6342 223.899 80.316 223.48 80.0599H223.418C222.914 79.7185 222.409 79.3538 221.921 78.9735L221.835 78.9114C221.416 78.5778 220.997 78.2363 220.594 77.8716H220.555C220.175 77.5457 219.779 77.1965 219.445 76.8473L219.267 76.6688C219.003 76.3429 218.723 76.048 218.452 75.7686Z" fill="white"/>
<path d="M330.646 111.232L330.599 129.359L328.403 130.64L328.458 109.975L330.646 111.232Z" fill="#F0F0F0"/>
<path d="M354.314 143.056L354.306 145.593L328.403 130.64L330.599 129.359L354.314 143.056Z" fill="#F5F5F5"/>
<path d="M325.734 132.153L356.96 150.179L357.038 123.415L325.819 105.389L325.734 132.153ZM328.403 130.601L328.458 109.928L330.646 111.193L354.368 124.936L354.314 143.063V145.601L328.403 130.601Z" fill="#E0E0E0"/>
<path d="M325.812 105.389L328.008 104.116L359.226 122.142L357.03 123.415L325.812 105.389Z" fill="#F5F5F5"/>
<path d="M359.226 122.142L359.148 148.899L356.952 150.179L357.03 123.415L359.226 122.142Z" fill="#F0F0F0"/>
<path d="M331.577 74.5038L331.53 92.6311L329.327 93.9038L329.389 73.2389L331.577 74.5038Z" fill="#F0F0F0"/>
<path d="M355.245 106.32L355.237 108.865L329.327 93.9038L331.53 92.6311L355.245 106.32Z" fill="#F5F5F5"/>
<path d="M326.696 95.448L357.915 113.474L357.992 86.7102L326.743 68.6605L326.696 95.448ZM329.358 93.896L329.42 73.2311L331.577 74.496L355.299 88.1924L355.245 106.312V108.857L329.358 93.896Z" fill="#E0E0E0"/>
<path d="M326.743 68.6605L328.939 67.3801L360.157 85.4066L357.961 86.687L326.743 68.6605Z" fill="#F5F5F5"/>
<path d="M360.157 85.4066L360.08 112.171L357.884 113.443L357.961 86.687L360.157 85.4066Z" fill="#F0F0F0"/>
<path d="M338.189 118.115L331.717 123.213L331.701 128.187L353.212 140.603L353.228 135.629L349.13 127.489L345.452 130.345L346.748 134.388L344.862 130.803L338.189 118.115Z" fill="#E0E0E0"/>
<path d="M345.25 120.621C344.241 120.039 343.411 120.513 343.411 121.677C343.445 122.311 343.628 122.927 343.947 123.476C344.265 124.025 344.709 124.491 345.242 124.835C346.251 125.425 347.074 124.952 347.082 123.788C347.047 123.153 346.864 122.535 346.545 121.985C346.227 121.435 345.783 120.968 345.25 120.621Z" fill="#E0E0E0"/>
<path d="M339.112 81.3869L332.648 86.4774L332.633 91.4516L354.143 103.875L354.159 98.9012L350.062 90.7532L346.376 93.6166L347.679 97.6596L345.794 94.0667L339.112 81.3869Z" fill="#E0E0E0"/>
<path d="M346.181 83.8934C345.165 83.3114 344.342 83.777 344.342 84.941C344.375 85.5752 344.557 86.1928 344.874 86.7432C345.191 87.2935 345.633 87.7609 346.166 88.107C347.182 88.689 348.005 88.2234 348.005 87.0594C347.973 86.4252 347.791 85.8076 347.474 85.2572C347.157 84.7069 346.714 84.2395 346.181 83.8934Z" fill="#E0E0E0"/>
<path d="M265.78 53.6294L312.239 80.4945C313.025 80.949 313.678 81.6017 314.133 82.3874C314.587 83.173 314.828 84.0642 314.831 84.972V131.687C314.805 132.58 314.544 133.451 314.076 134.212C313.607 134.973 312.947 135.597 312.161 136.022C311.375 136.448 310.491 136.659 309.597 136.635C308.704 136.611 307.833 136.352 307.071 135.885L287.671 124.37L287.252 125.045C287.252 125.045 287.213 125.083 287.19 125.107H287.143C286.367 125.611 285.056 126.325 284.761 126.48C284.692 126.503 284.617 126.497 284.552 126.466C284.487 126.434 284.436 126.378 284.412 126.31L282.72 121.514L260.581 109.082C259.791 108.631 259.135 107.979 258.679 107.193C258.222 106.407 257.982 105.514 257.981 104.605V57.8275C257.981 54.1027 263.46 52.2946 265.78 53.6294Z" fill="#F09FBF"/>
<path opacity="0.2" d="M287.182 125.045C287.182 125.045 287.143 125.083 287.12 125.107H287.073C286.297 125.611 284.986 126.325 284.691 126.48C284.726 126.475 284.76 126.461 284.79 126.441C284.819 126.421 284.844 126.395 284.862 126.364L286.499 123.71L286.173 123.524L287.617 124.346L287.182 125.045Z" fill="white"/>
<path opacity="0.4" d="M309.026 85.36C308.692 84.6927 308.222 84.1031 307.645 83.6295C307.447 83.4706 307.237 83.3278 307.017 83.2027L260.558 56.3298C260.295 56.1803 259.999 56.1023 259.697 56.1035C259.395 56.1047 259.099 56.1852 258.838 56.3369C258.577 56.4885 258.361 56.706 258.21 56.9676C258.06 57.2292 257.981 57.5258 257.981 57.8275C257.981 54.1027 263.46 52.2946 265.78 53.6294L312.239 80.4945C313.043 80.9604 313.707 81.6329 314.164 82.4422L309.026 85.36Z" fill="white"/>
<path opacity="0.2" d="M309.624 134.395V87.688C309.624 86.8759 309.425 86.0763 309.042 85.36L314.179 82.4422C314.614 83.2144 314.844 84.0855 314.846 84.972V131.687C314.82 132.58 314.56 133.451 314.091 134.212C313.623 134.973 312.962 135.597 312.176 136.022C311.39 136.448 310.506 136.659 309.613 136.635C308.72 136.611 307.848 136.352 307.086 135.885C307.347 136.025 307.639 136.096 307.934 136.09C308.23 136.084 308.519 136.003 308.774 135.853C309.029 135.704 309.241 135.491 309.39 135.236C309.538 134.98 309.619 134.691 309.624 134.395Z" fill="white"/>
<path d="M269.357 75.5203L296.323 91.0869L294.701 109.571C294.608 110.696 293.739 111.123 292.707 110.502L272.05 98.552C271.637 98.2997 271.276 97.9704 270.987 97.582L271.026 98.1097C271.15 99.2844 271.535 100.417 272.152 101.423C272.77 102.43 273.604 103.287 274.595 103.93L275.503 104.45C275.844 104.53 276.171 104.661 276.473 104.838C276.829 105.053 277.155 105.314 277.443 105.614L287.12 111.201C287.462 111.276 287.79 111.407 288.09 111.589C288.441 111.792 288.767 112.037 289.06 112.318L291.116 113.506C291.345 113.659 291.534 113.864 291.669 114.104C291.804 114.343 291.88 114.612 291.892 114.887C291.892 115.391 291.528 115.593 291.116 115.345L290.953 115.252C291.186 115.864 291.307 116.513 291.31 117.168C291.31 119.217 289.859 120.047 288.067 119.015C287.129 118.403 286.349 117.58 285.79 116.61C285.23 115.641 284.907 114.553 284.846 113.436C284.83 112.912 284.959 112.393 285.219 111.938L279.306 108.524C279.533 109.138 279.654 109.786 279.663 110.44C279.663 112.497 278.204 113.319 276.419 112.287C275.479 111.678 274.697 110.855 274.137 109.885C273.577 108.915 273.256 107.826 273.199 106.708C273.181 106.161 273.324 105.622 273.61 105.156C271.249 103.217 269.739 100.432 269.404 97.3957L267.573 72.5637C267.517 72.0417 267.345 71.5387 267.07 71.0917C266.794 70.6446 266.423 70.2646 265.982 69.9797L262.645 68.0474C262.417 67.895 262.229 67.6914 262.094 67.4528C261.959 67.2143 261.882 66.9475 261.869 66.6739C261.869 66.1617 262.234 65.96 262.645 66.2161L265.982 68.1405C266.862 68.7134 267.604 69.4751 268.153 70.3704C268.702 71.2657 269.044 72.2721 269.156 73.3165L269.357 75.5203ZM283.473 101.834L283.512 87.0284C283.491 86.6539 283.383 86.2895 283.195 85.9646C283.008 85.6397 282.747 85.3635 282.433 85.1582C281.835 84.8168 281.354 85.0884 281.347 85.779L281.308 100.585C281.332 100.955 281.443 101.315 281.63 101.635C281.817 101.956 282.076 102.229 282.386 102.432C282.984 102.773 283.473 102.494 283.473 101.811M288.129 104.512L288.168 89.7056C288.147 89.3311 288.039 88.9667 287.851 88.6418C287.664 88.3169 287.403 88.0407 287.089 87.8354C286.491 87.494 286.003 87.7656 286.003 88.4562V103.262C286.022 103.637 286.129 104.002 286.317 104.327C286.504 104.652 286.766 104.928 287.081 105.132C287.679 105.474 288.16 105.195 288.168 104.512M292.824 107.212L292.87 92.4061C292.844 92.0342 292.732 91.6736 292.542 91.3529C292.352 91.0322 292.09 90.7604 291.776 90.5592C291.178 90.2177 290.69 90.4893 290.69 91.18L290.651 105.986C290.674 106.366 290.788 106.736 290.984 107.062C291.18 107.389 291.451 107.664 291.776 107.864C292.366 108.205 292.855 107.926 292.855 107.243M278.825 99.1417L278.863 84.3357C278.848 83.96 278.742 83.5937 278.554 83.268C278.366 82.9423 278.102 82.667 277.785 82.4655C277.187 82.1241 276.706 82.3957 276.698 83.0863V97.8924C276.719 98.2667 276.828 98.6309 277.015 98.9557C277.203 99.2805 277.463 99.5569 277.777 99.7625C278.374 100.104 278.863 99.8246 278.863 99.1417M274.207 96.4413L274.254 81.6352C274.232 81.261 274.123 80.897 273.936 80.5723C273.749 80.2476 273.488 79.9712 273.175 79.765C272.578 79.4236 272.089 79.6952 272.089 80.3858L272.042 95.1919C272.063 95.5653 272.171 95.9287 272.358 96.2523C272.546 96.576 272.807 96.8508 273.121 97.0543C273.718 97.4035 274.207 97.1241 274.207 96.4413ZM276.535 107.189C275.868 106.801 275.325 107.111 275.317 107.88C275.341 108.299 275.463 108.707 275.673 109.071C275.883 109.435 276.176 109.745 276.528 109.975C277.203 110.363 277.738 110.052 277.746 109.284C277.724 108.864 277.603 108.455 277.392 108.091C277.182 107.727 276.888 107.418 276.535 107.189ZM288.175 113.917C287.508 113.529 286.965 113.839 286.965 114.607C286.985 115.027 287.105 115.436 287.314 115.8C287.523 116.164 287.816 116.473 288.168 116.703C288.835 117.091 289.386 116.78 289.386 116.004C289.362 115.586 289.24 115.179 289.03 114.816C288.82 114.453 288.527 114.145 288.175 113.917Z" fill="white"/>
<path d="M304.045 91.4826C304.393 91.6947 304.679 91.9944 304.875 92.3518C305.333 93.1278 305.333 93.9969 304.875 94.253L298.023 98.133C297.889 98.1941 297.742 98.2184 297.596 98.2034C297.45 98.1884 297.311 98.1346 297.193 98.0476C296.847 97.832 296.562 97.5332 296.362 97.1785L293.01 91.3585C292.544 90.5825 292.552 89.7134 293.01 89.4495C293.144 89.39 293.291 89.3665 293.436 89.3815C293.582 89.3964 293.721 89.4493 293.84 89.5349C294.185 89.7504 294.471 90.0493 294.671 90.404L297.208 94.8272L303.23 91.3973C303.361 91.3391 303.506 91.3163 303.649 91.3313C303.792 91.3463 303.928 91.3985 304.045 91.4826Z" fill="white"/>
<path d="M298.954 84.3046C303.525 86.943 307.211 93.3373 307.195 98.583C307.18 103.829 303.47 105.94 298.9 103.301C294.329 100.663 290.651 94.284 290.666 89.0305C290.682 83.777 294.391 81.674 298.954 84.3046ZM297.984 98.164L304.836 94.284C305.302 94.0279 305.302 93.1743 304.836 92.3828C304.64 92.0254 304.354 91.7257 304.006 91.5137C303.888 91.4267 303.748 91.3729 303.602 91.3579C303.456 91.3428 303.309 91.3672 303.175 91.4283L297.208 94.8272L294.678 90.435C294.479 90.0803 294.193 89.7815 293.848 89.5659C293.729 89.4804 293.59 89.4275 293.444 89.4125C293.298 89.3975 293.151 89.421 293.018 89.4806C292.56 89.7444 292.552 90.5902 293.018 91.3895L296.37 97.2095C296.569 97.5642 296.855 97.8631 297.2 98.0786C297.318 98.1656 297.458 98.2195 297.604 98.2345C297.75 98.2495 297.897 98.2251 298.031 98.164" fill="#F09FBF"/>
<path opacity="0.3" d="M298.954 84.3046C303.525 86.943 307.211 93.3373 307.195 98.583C307.18 103.829 303.47 105.94 298.9 103.301C294.329 100.663 290.651 94.284 290.666 89.0305C290.682 83.777 294.391 81.674 298.954 84.3046ZM297.984 98.164L304.836 94.284C305.302 94.0279 305.302 93.1743 304.836 92.3828C304.64 92.0254 304.354 91.7257 304.006 91.5137C303.888 91.4267 303.748 91.3729 303.602 91.3579C303.456 91.3428 303.309 91.3672 303.175 91.4283L297.208 94.8272L294.678 90.435C294.479 90.0803 294.193 89.7815 293.848 89.5659C293.729 89.4804 293.59 89.4275 293.444 89.4125C293.298 89.3975 293.151 89.421 293.018 89.4806C292.56 89.7444 292.552 90.5902 293.018 91.3895L296.37 97.2095C296.569 97.5642 296.855 97.8631 297.2 98.0786C297.318 98.1656 297.458 98.2195 297.604 98.2345C297.75 98.2495 297.897 98.2251 298.031 98.164" fill="white"/>
<path d="M150.009 61.8006C149.465 59.8839 145.57 56.2367 141.69 56.3143C141.318 56.326 140.951 56.3994 140.603 56.5316L65.3392 99.328C64.0805 100.043 63.0705 101.126 62.4447 102.432C61.9481 103.412 61.6826 104.492 61.6687 105.59V268.434C61.6687 272.578 66.4489 276.535 70.9419 274.642C71.0439 274.613 71.1427 274.574 71.2368 274.526L146.509 231.628C147.611 230.998 148.528 230.088 149.166 228.989C149.803 227.891 150.14 226.644 150.14 225.374V62.5844C150.157 62.3165 150.112 62.0483 150.009 61.8006Z" fill="#455A64"/>
<path d="M72.168 122.818C72.1705 122.186 72.3397 121.566 72.6586 121.021C72.9774 120.476 73.4346 120.025 73.9838 119.714L143.909 79.928C144.182 79.7722 144.491 79.6906 144.805 79.6912C145.12 79.6919 145.428 79.7748 145.701 79.9318C145.973 80.0887 146.199 80.3142 146.357 80.5858C146.516 80.8574 146.6 81.1657 146.602 81.48V212.779C146.595 213.41 146.425 214.028 146.106 214.572C145.788 215.117 145.333 215.569 144.786 215.883L74.8917 255.739C74.6188 255.894 74.3098 255.976 73.9955 255.975C73.6812 255.975 73.3726 255.892 73.1003 255.735C72.828 255.578 72.6015 255.352 72.4434 255.081C72.2853 254.809 72.201 254.501 72.199 254.187L72.168 122.818Z" fill="#F09FBF"/>
<path opacity="0.2" d="M72.168 122.818C72.1705 122.186 72.3397 121.566 72.6586 121.021C72.9774 120.476 73.4346 120.025 73.9838 119.714L143.909 79.928C144.182 79.7722 144.491 79.6906 144.805 79.6912C145.12 79.6919 145.428 79.7748 145.701 79.9318C145.973 80.0887 146.199 80.3142 146.357 80.5858C146.516 80.8574 146.6 81.1657 146.602 81.48V212.779C146.595 213.41 146.425 214.028 146.106 214.572C145.788 215.117 145.333 215.569 144.786 215.883L74.8917 255.739C74.6188 255.894 74.3098 255.976 73.9955 255.975C73.6812 255.975 73.3726 255.892 73.1003 255.735C72.828 255.578 72.6015 255.352 72.4434 255.081C72.2853 254.809 72.201 254.501 72.199 254.187L72.168 122.818Z" fill="black"/>
<path opacity="0.1" d="M72.168 122.818C72.1705 122.186 72.3397 121.566 72.6586 121.021C72.9774 120.476 73.4346 120.025 73.9838 119.714L143.909 79.928C144.182 79.7722 144.491 79.6906 144.805 79.6912C145.12 79.6919 145.428 79.7748 145.701 79.9318C145.973 80.0887 146.199 80.3142 146.357 80.5858C146.516 80.8574 146.6 81.1657 146.602 81.48V212.779C146.595 213.41 146.425 214.028 146.106 214.572C145.788 215.117 145.333 215.569 144.786 215.883L74.8917 255.739C74.6188 255.894 74.3098 255.976 73.9955 255.975C73.6812 255.975 73.3726 255.892 73.1003 255.735C72.828 255.578 72.6015 255.352 72.4434 255.081C72.2853 254.809 72.201 254.501 72.199 254.187L72.168 122.818Z" fill="white"/>
<path opacity="0.3" d="M61.6997 105.606V268.434C61.6997 272.578 66.4799 276.535 70.9729 274.642C70.7032 274.741 70.4137 274.773 70.129 274.736C69.8442 274.698 69.5727 274.593 69.3373 274.429C69.1019 274.264 68.9098 274.045 68.7771 273.79C68.6444 273.536 68.5751 273.253 68.5751 272.966V110.107C68.5943 108.686 69.0345 107.304 69.8399 106.134L62.4447 102.432C61.9565 103.419 61.7016 104.505 61.6997 105.606Z" fill="black"/>
<path opacity="0.1" d="M141.697 56.3066C141.326 56.3182 140.959 56.3917 140.611 56.5238L65.3391 99.328C64.0803 100.043 63.0704 101.126 62.4446 102.432L69.8399 106.134C70.4532 105.176 71.2858 104.378 72.2687 103.806L147.541 60.9858C147.754 60.8635 147.99 60.7864 148.234 60.7594C148.478 60.7323 148.725 60.756 148.959 60.8288C149.194 60.9017 149.411 61.0221 149.597 61.1827C149.783 61.3432 149.933 61.5404 150.039 61.7618C149.473 59.8762 145.577 56.229 141.697 56.3066Z" fill="white"/>
<path d="M118.674 87.9053C119.209 87.6026 119.644 87.8432 119.644 88.4485C119.623 88.7821 119.526 89.1065 119.359 89.396C119.192 89.6856 118.96 89.9323 118.681 90.1169L103.937 98.6529C103.41 98.9633 102.983 98.7072 102.983 98.0942C103.001 97.7649 103.096 97.4445 103.26 97.1587C103.425 96.8729 103.654 96.6298 103.93 96.449L118.674 87.9053Z" fill="#263238"/>
<path d="M100.104 98.6218C100.632 98.3192 101.059 98.5598 101.059 99.1728C101.04 99.5048 100.944 99.8279 100.778 100.116C100.612 100.405 100.382 100.65 100.104 100.833C99.5764 101.136 99.1418 100.888 99.1418 100.282C99.1583 99.949 99.2543 99.6244 99.4216 99.3355C99.589 99.0466 99.823 98.802 100.104 98.6218Z" fill="#263238"/>
<path d="M109.571 86.6714C110.627 86.0584 111.48 86.5473 111.48 87.7578C111.447 88.421 111.258 89.067 110.927 89.6429C110.597 90.2188 110.135 90.7083 109.579 91.0714C108.524 91.6844 107.647 91.1878 107.647 89.9694C107.686 89.3072 107.88 88.6634 108.215 88.0904C108.549 87.5174 109.014 87.0313 109.571 86.6714Z" fill="#263238"/>
<path d="M109.571 239.955C111.729 238.713 113.451 239.706 113.451 242.174C113.383 243.527 112.995 244.844 112.321 246.018C111.647 247.193 110.705 248.192 109.571 248.933C107.422 250.175 105.637 249.158 105.629 246.683C105.71 245.33 106.109 244.015 106.794 242.846C107.479 241.677 108.43 240.686 109.571 239.955Z" fill="#263238"/>
<path d="M146.369 77.8638L171.791 98.9633L162.525 104.318L137.111 83.2182L146.369 77.8638Z" fill="#F09FBF"/>
<path d="M127.846 88.5726L153.26 109.664L143.995 115.019L118.588 93.927L127.846 88.5726Z" fill="#F09FBF"/>
<path d="M118.588 93.927L143.994 115.019L134.729 120.373L109.323 99.2814L118.588 93.927Z" fill="white"/>
<path d="M137.111 83.2182L162.525 104.318L153.26 109.664L127.846 88.5726L137.111 83.2182Z" fill="white"/>
<path d="M90.7996 109.982L116.198 131.074L106.933 136.429L81.5342 115.337L90.7996 109.982Z" fill="#F09FBF"/>
<path d="M109.323 99.2814L134.729 120.373L125.464 125.72L100.057 104.628L109.323 99.2814Z" fill="#F09FBF"/>
<path d="M72.0981 120.792L81.5343 115.337L106.933 136.429L97.4733 141.892L72.0981 120.792Z" fill="white"/>
<path d="M100.057 104.628L125.464 125.72L116.198 131.074L90.7998 109.982L100.057 104.628Z" fill="white"/>
<path d="M171.791 98.9633L162.525 104.318C162.525 104.946 162.689 105.563 163.003 106.107C163.316 106.651 163.767 107.103 164.311 107.417C164.854 107.732 165.471 107.898 166.098 107.899C166.726 107.899 167.343 107.735 167.888 107.422C169.069 106.731 170.049 105.743 170.73 104.556C171.411 103.369 171.769 102.024 171.768 100.655L171.791 98.9633Z" fill="#F09FBF"/>
<path d="M162.525 104.318L153.26 109.672C153.259 110.3 153.424 110.917 153.737 111.461C154.051 112.005 154.502 112.457 155.045 112.772C155.589 113.086 156.205 113.252 156.833 113.253C157.461 113.254 158.078 113.089 158.622 112.776C159.805 112.087 160.786 111.099 161.467 109.911C162.148 108.724 162.505 107.378 162.502 106.009L162.525 104.318Z" fill="#E0E0E0"/>
<path d="M153.26 109.672L143.995 115.019C143.994 115.647 144.159 116.264 144.472 116.808C144.785 117.352 145.236 117.804 145.78 118.118C146.323 118.433 146.94 118.599 147.568 118.6C148.196 118.601 148.813 118.436 149.357 118.123C150.54 117.434 151.521 116.446 152.201 115.258C152.882 114.071 153.239 112.725 153.237 111.356L153.26 109.672Z" fill="#F09FBF"/>
<path d="M143.994 115.019L134.729 120.373C134.726 121.002 134.889 121.62 135.202 122.166C135.515 122.711 135.966 123.165 136.51 123.48C137.054 123.795 137.672 123.96 138.301 123.96C138.93 123.959 139.547 123.793 140.091 123.477C141.273 122.789 142.254 121.803 142.935 120.616C143.616 119.43 143.973 118.086 143.971 116.718L143.994 115.019Z" fill="#E0E0E0"/>
<path d="M134.729 120.373L125.464 125.712C125.463 126.34 125.628 126.957 125.941 127.501C126.254 128.045 126.705 128.497 127.249 128.812C127.792 129.126 128.409 129.292 129.037 129.293C129.665 129.294 130.282 129.129 130.826 128.816C132.009 128.127 132.99 127.139 133.67 125.951C134.351 124.764 134.708 123.418 134.706 122.049L134.729 120.373Z" fill="#F09FBF"/>
<path d="M125.464 125.712L116.198 131.059C116.198 131.687 116.362 132.304 116.676 132.848C116.989 133.392 117.44 133.844 117.983 134.158C118.527 134.473 119.143 134.639 119.771 134.64C120.399 134.64 121.016 134.476 121.56 134.163C122.742 133.472 123.722 132.484 124.403 131.297C125.084 130.11 125.441 128.765 125.44 127.396L125.464 125.712Z" fill="#E0E0E0"/>
<path d="M116.198 131.074L106.933 136.429C106.93 137.057 107.093 137.676 107.406 138.221C107.719 138.767 108.17 139.22 108.714 139.535C109.258 139.85 109.876 140.016 110.505 140.015C111.134 140.015 111.751 139.848 112.295 139.533C113.482 138.848 114.466 137.861 115.147 136.672C115.829 135.484 116.183 134.136 116.175 132.766L116.198 131.074Z" fill="#F09FBF"/>
<path opacity="0.2" d="M171.791 98.9633L162.525 104.318C162.525 104.946 162.689 105.563 163.003 106.107C163.316 106.651 163.767 107.103 164.311 107.417C164.854 107.732 165.471 107.898 166.098 107.899C166.726 107.899 167.343 107.735 167.888 107.422C169.069 106.731 170.049 105.743 170.73 104.556C171.411 103.369 171.769 102.024 171.768 100.655L171.791 98.9633Z" fill="black"/>
<path opacity="0.2" d="M153.26 109.672L143.995 115.019C143.994 115.647 144.159 116.264 144.472 116.808C144.785 117.352 145.236 117.804 145.78 118.118C146.323 118.433 146.94 118.599 147.568 118.6C148.196 118.601 148.813 118.436 149.357 118.123C150.54 117.434 151.521 116.446 152.201 115.258C152.882 114.071 153.239 112.725 153.237 111.356L153.26 109.672Z" fill="black"/>
<path opacity="0.2" d="M134.729 120.373L125.464 125.712C125.463 126.34 125.628 126.957 125.941 127.501C126.254 128.045 126.705 128.497 127.249 128.812C127.792 129.126 128.409 129.292 129.037 129.293C129.665 129.294 130.282 129.129 130.826 128.816C132.009 128.127 132.99 127.139 133.67 125.951C134.351 124.764 134.708 123.418 134.706 122.049L134.729 120.373Z" fill="black"/>
<path opacity="0.2" d="M116.198 131.074L106.933 136.429C106.93 137.057 107.093 137.676 107.406 138.221C107.719 138.767 108.17 139.22 108.714 139.535C109.258 139.85 109.876 140.016 110.505 140.015C111.134 140.015 111.751 139.848 112.295 139.533C113.482 138.848 114.466 137.861 115.147 136.672C115.829 135.484 116.183 134.136 116.175 132.766L116.198 131.074Z" fill="black"/>
<path d="M106.933 136.429L97.4734 141.861C97.4712 142.488 97.6345 143.105 97.9469 143.65C98.2593 144.194 98.7097 144.647 99.2527 144.961C99.7957 145.276 100.412 145.442 101.04 145.443C101.668 145.443 102.284 145.278 102.828 144.965C104.077 144.243 105.114 143.206 105.834 141.957C106.555 140.708 106.934 139.291 106.933 137.849V136.429Z" fill="#E0E0E0"/>
<path d="M117.735 163.736C114.986 164.062 112.32 164.885 109.866 166.165C104.145 169.116 99.7737 174.149 97.6518 180.226C96.7314 182.836 96.2924 185.592 96.3559 188.358C96.9658 185.744 97.8475 183.2 98.9865 180.769C101.534 175.322 105.552 170.694 110.588 167.406C112.837 165.94 115.232 164.709 117.735 163.736Z" fill="#F09FBF"/>
<path d="M110.487 204.367C108.978 204.342 107.483 204.08 106.056 203.591C104.47 203.066 103.005 202.227 101.75 201.124C100.494 200.022 99.4726 198.678 98.7459 197.174C98.0738 195.824 97.6207 194.375 97.4034 192.883C97.2411 194.445 97.4457 196.023 98.0009 197.492C98.6261 199.203 99.6715 200.73 101.041 201.931C102.411 203.133 104.06 203.97 105.839 204.367C107.367 204.729 108.958 204.729 110.487 204.367Z" fill="#F09FBF"/>
<path d="M122.515 179.411C122.666 181.479 122.635 183.557 122.422 185.619C121.93 190.279 120.403 194.771 117.952 198.765C116.863 200.54 115.619 202.215 114.235 203.77C116.017 202.578 117.591 201.099 118.891 199.393C121.901 195.464 123.537 190.654 123.547 185.705C123.551 183.564 123.202 181.438 122.515 179.411Z" fill="#F09FBF"/>
<path d="M98.1872 170.844C96.3113 172.648 94.7784 174.778 93.6631 177.13C91.0353 182.587 90.5966 188.843 92.437 194.613C93.2211 197.097 94.4432 199.42 96.0454 201.473C95.0269 199.158 94.2469 196.745 93.7174 194.272C92.5564 188.733 92.9594 182.98 94.8814 177.657C95.7416 175.277 96.8496 172.993 98.1872 170.844Z" fill="#F09FBF"/>
<path d="M127.83 171.76C127.632 169.64 126.871 167.612 125.626 165.886C124.214 163.846 122.237 162.263 119.938 161.33C117.639 160.397 115.117 160.154 112.683 160.632C110.588 161.011 108.631 161.937 107.01 163.317C108.833 162.423 110.807 161.881 112.83 161.718C115.063 161.514 117.312 161.847 119.39 162.689C121.467 163.531 123.313 164.859 124.773 166.561C126.11 168.086 127.147 169.85 127.83 171.76Z" fill="#F09FBF"/>
<path d="M161.113 147.44C163.571 147.19 166.033 147.878 168.006 149.366C169.979 150.854 171.317 153.032 171.752 155.464L175.353 175.64L197.934 191.431L192.89 197.57L171.411 186.287C170.145 185.623 169.026 184.712 168.118 183.608C167.211 182.505 166.533 181.231 166.126 179.861L159.204 156.511L161.113 147.44Z" fill="#FFA8A7"/>
<path d="M169.494 169.121C171.489 168.059 173.087 166.379 174.049 164.334L172.024 155.084C171.507 152.735 170.144 150.658 168.195 149.248C166.246 147.839 163.847 147.195 161.454 147.44L161.113 147.479L159.204 156.566L162.184 169.944C164.64 170.557 167.235 170.265 169.494 169.121Z" fill="#455A64"/>
<path d="M169.494 169.121C167.235 170.265 164.64 170.557 162.184 169.944L162.96 173.242C165.761 173.871 172.939 173.661 174.81 167.732L174.034 164.318C173.079 166.367 171.486 168.053 169.494 169.121Z" fill="#455A64"/>
<path opacity="0.2" d="M169.494 169.121C171.489 168.059 173.087 166.379 174.049 164.334L172.024 155.084C171.507 152.735 170.144 150.658 168.195 149.248C166.246 147.839 163.847 147.195 161.454 147.44L161.113 147.479L159.204 156.566L162.184 169.944C164.64 170.557 167.235 170.265 169.494 169.121Z" fill="white"/>
<path opacity="0.5" d="M169.494 169.121C167.235 170.265 164.64 170.557 162.184 169.944L162.96 173.242C165.761 173.871 172.939 173.661 174.81 167.732L174.034 164.318C173.079 166.367 171.486 168.053 169.494 169.121Z" fill="white"/>
<path d="M166.11 156.123C166.11 156.123 165.21 149.256 161.113 147.463C161.113 147.463 151.304 150.404 143.172 153.493C139.956 154.666 136.806 156.013 133.736 157.528C131.889 159.127 126.589 163.883 124.098 165.164C122.881 165.772 121.568 166.166 120.218 166.328C118.511 166.602 116.873 167.2 115.391 168.089C107.926 172.404 101.896 182.833 101.92 191.424C101.92 197.05 104.558 200.456 108.461 200.93H108.64C109.256 200.995 109.878 200.995 110.495 200.93C117.285 200.868 128.172 200.813 132.448 199.587C152.422 193.721 168.128 179.256 166.11 156.123Z" fill="#455A64"/>
<path d="M147.075 153.307L150.001 147.999L161.773 155.929L157.117 162.184C156.139 162.663 155.073 162.933 153.985 162.977C152.898 163.021 151.813 162.838 150.8 162.44C149.799 161.979 148.903 161.316 148.169 160.494C147.435 159.671 146.878 158.707 146.532 157.66C146.326 156.935 146.267 156.176 146.361 155.428C146.454 154.68 146.697 153.958 147.075 153.307Z" fill="#FFA8A7"/>
<path opacity="0.2" d="M151.103 148.736C151.103 155.13 156.186 158.126 159.29 159.258L161.773 155.929L151.103 148.736Z" fill="black"/>
<path d="M145.787 142.357C145.353 139.804 144.91 137.181 145.407 134.636C145.904 132.091 147.549 129.608 150.063 128.863C150.574 127.774 151.304 126.804 152.208 126.012C153.112 125.22 154.171 124.624 155.316 124.261C157.563 123.648 159.887 123.365 162.215 123.423C164.784 123.269 167.362 123.412 169.897 123.85C172.453 124.306 174.775 125.623 176.478 127.582C177.351 128.784 177.97 130.151 178.298 131.6C178.626 133.048 178.657 134.549 178.387 136.01C177.83 138.929 176.75 141.724 175.198 144.258C170.262 144.608 165.234 145.174 160.298 145.523C157.784 145.787 155.251 145.81 152.732 145.593C150.162 145.178 147.758 144.058 145.787 142.357Z" fill="#263238"/>
<path d="M176.004 130.523C177.269 138.118 176.432 145.913 173.583 153.066C172.924 154.719 172.031 156.434 170.518 157.311C169.005 158.188 166.894 158.048 165.086 157.769C162.095 157.428 159.179 156.608 156.449 155.34C153.701 154.044 151.561 151.736 150.474 148.899C149.496 149.096 148.481 149.007 147.552 148.642C146.623 148.277 145.819 147.652 145.236 146.842C144.09 145.161 143.496 143.165 143.537 141.131C143.537 139.835 143.777 138.306 144.941 137.74C146.105 137.174 147.316 137.802 148.255 138.563C149.794 139.815 150.919 141.502 151.483 143.405C152.336 140.246 153.663 137.197 154.517 134.093C154.858 132.851 155.293 131.501 156.356 130.81C157.675 129.964 159.398 130.446 160.927 130.81C165.895 131.999 171.085 131.9 176.004 130.523Z" fill="#FFA8A7"/>
<path d="M166.817 140.091L170.503 146.292L166.111 147.122L166.817 140.091Z" fill="#F28F8F"/>
<path d="M161.873 149.256L165.21 150.878C164.926 151.258 164.524 151.535 164.067 151.665C163.61 151.795 163.123 151.772 162.681 151.599C162.298 151.36 162.009 150.997 161.863 150.57C161.716 150.144 161.72 149.68 161.873 149.256Z" fill="#F28F8F"/>
<path opacity="0.3" d="M161.873 149.256L165.21 150.878C164.926 151.258 164.524 151.535 164.067 151.665C163.61 151.795 163.123 151.772 162.681 151.599C162.298 151.36 162.009 150.997 161.863 150.57C161.716 150.144 161.72 149.68 161.873 149.256Z" fill="black"/>
<path d="M163.837 151.708C163.449 151.787 163.047 151.749 162.681 151.599C162.374 151.428 162.125 151.168 161.966 150.855C161.807 150.541 161.745 150.187 161.788 149.838C162.267 149.839 162.731 150 163.107 150.296C163.525 150.654 163.786 151.16 163.837 151.708Z" fill="#F28F8F"/>
<path d="M160.454 140.34C160.429 140.589 160.478 140.84 160.596 141.06C160.714 141.281 160.894 141.462 161.115 141.581C161.335 141.699 161.586 141.749 161.835 141.724C162.084 141.7 162.321 141.602 162.514 141.444C162.708 141.285 162.85 141.072 162.923 140.833C162.995 140.593 162.995 140.337 162.922 140.098C162.85 139.858 162.707 139.646 162.514 139.487C162.32 139.329 162.084 139.231 161.835 139.207C161.502 139.174 161.169 139.275 160.91 139.488C160.651 139.7 160.487 140.006 160.454 140.34Z" fill="#263238"/>
<path d="M171.038 140.991C171.013 141.239 171.063 141.488 171.179 141.707C171.296 141.926 171.475 142.106 171.694 142.224C171.912 142.341 172.161 142.392 172.408 142.368C172.656 142.344 172.89 142.248 173.083 142.091C173.276 141.934 173.417 141.724 173.491 141.487C173.564 141.249 173.565 140.995 173.494 140.757C173.423 140.519 173.283 140.308 173.092 140.149C172.9 139.99 172.667 139.892 172.42 139.866C172.255 139.849 172.088 139.865 171.93 139.912C171.771 139.959 171.623 140.037 171.495 140.142C171.367 140.246 171.26 140.375 171.182 140.521C171.104 140.667 171.055 140.827 171.038 140.991Z" fill="#263238"/>
<path d="M172.761 136.118L175.353 138.322C175.508 137.989 175.558 137.617 175.495 137.255C175.433 136.893 175.261 136.558 175.003 136.297C174.683 136.061 174.304 135.919 173.907 135.888C173.511 135.856 173.114 135.936 172.761 136.118Z" fill="#263238"/>
<path d="M162.44 135.947L159.468 137.593C159.381 137.236 159.405 136.861 159.537 136.519C159.668 136.176 159.902 135.882 160.205 135.676C160.566 135.509 160.966 135.446 161.361 135.494C161.756 135.542 162.129 135.699 162.44 135.947Z" fill="#263238"/>
<path d="M178.363 133.076C167.568 134.804 156.567 134.804 145.771 133.076C146.276 119.884 152.212 115.562 162.455 115.562C172.699 115.562 178.48 121.056 178.363 133.076Z" fill="#455A64"/>
<path d="M178.364 133.076C178.364 128.024 177.386 124.144 175.469 121.328L171.178 120.125C169.158 119.557 167.038 119.446 164.97 119.799L160.88 120.482C159.481 120.707 158.193 121.383 157.213 122.407C156.232 123.431 155.613 124.746 155.448 126.154L154.509 134.116C162.474 134.69 170.479 134.341 178.364 133.076Z" fill="#455A64"/>
<path opacity="0.29" d="M178.364 133.076C178.364 128.024 177.386 124.144 175.469 121.328L171.178 120.125C169.158 119.557 167.038 119.446 164.97 119.799L160.88 120.482C159.481 120.707 158.193 121.383 157.213 122.407C156.232 123.431 155.613 124.746 155.448 126.154L154.509 134.116C162.474 134.69 170.479 134.341 178.364 133.076Z" fill="white"/>
<path d="M179.644 121.972H177.751C177.137 121.972 176.532 121.972 175.927 122.042C170.375 122.445 165.114 124.677 160.966 128.389L154.587 134.116C162.526 134.684 170.504 134.335 178.364 133.076L182.515 128.04C182.956 127.495 183.235 126.836 183.318 126.14C183.402 125.443 183.287 124.737 182.987 124.103C182.687 123.469 182.214 122.933 181.623 122.556C181.031 122.179 180.345 121.976 179.644 121.972Z" fill="#455A64"/>
<path opacity="0.2" d="M179.644 121.972H177.751C177.137 121.972 176.532 121.972 175.927 122.042C170.375 122.445 165.114 124.677 160.966 128.389L154.587 134.116C162.526 134.684 170.504 134.335 178.364 133.076L182.515 128.04C182.956 127.495 183.235 126.836 183.318 126.14C183.402 125.443 183.287 124.737 182.987 124.103C182.687 123.469 182.214 122.933 181.623 122.556C181.031 122.179 180.345 121.976 179.644 121.972Z" fill="black"/>
<path d="M212.445 192.495L183.516 209.303L154.401 192.495L183.322 175.679L212.445 192.495Z" fill="#F09FBF"/>
<g opacity="0.3">
<path d="M212.445 192.495L183.516 209.303L154.401 192.495L183.322 175.679L212.445 192.495Z" fill="white"/>
</g>
<path d="M212.446 192.495L212.36 221.92L183.431 238.729L183.516 209.303L212.446 192.495Z" fill="#F09FBF"/>
<g opacity="0.1">
<path d="M212.446 192.495L212.36 221.92L183.431 238.729L183.516 209.303L212.446 192.495Z" fill="white"/>
</g>
<path d="M183.516 209.303L183.431 238.729L154.315 221.92L154.401 192.495L183.516 209.303Z" fill="#F09FBF"/>
<path d="M188.552 190.337L198.345 184.354L193.348 181.468L183.516 187.334L188.552 190.337Z" fill="#E0E0E0"/>
<path d="M188.552 190.337L183.516 187.334L173.529 181.374L168.547 184.269L178.472 190.337L183.516 193.418L196.832 201.566L202.171 198.462L188.552 190.337Z" fill="white"/>
<path d="M178.472 190.337L164.799 198.493L170.153 201.589L183.516 193.418L178.472 190.337Z" fill="#E0E0E0"/>
<path d="M202.171 198.462L196.832 201.566L196.879 201.589L196.956 230.868L202.357 227.733L202.28 198.516L202.171 198.462Z" fill="#E0E0E0"/>
<path d="M170.154 201.589L164.799 198.493L164.753 198.516L164.667 227.903L170.068 231.015L170.154 201.589Z" fill="white"/>
<path opacity="0.2" d="M170.154 201.589L164.799 198.493L164.753 198.516L164.667 227.903L170.068 231.015L170.154 201.589Z" fill="black"/>
<path d="M183.501 199.23L177.448 202.932L183.501 206.432L189.538 202.924L183.501 199.23Z" fill="white"/>
<path d="M126.232 198.214C126.232 198.214 128.49 165.35 128.964 163.294C130.772 155.479 142.101 156.038 143.18 163.984C143.622 167.228 138.446 198.726 138.446 198.726L157.194 218.56L160.989 222.045L164.372 221.362L172.086 222.091C172.291 222.112 172.484 222.199 172.635 222.339C172.786 222.479 172.888 222.664 172.924 222.867C172.973 223.108 172.929 223.358 172.798 223.566C172.668 223.774 172.463 223.924 172.226 223.985L167.127 225.226L170.805 227.74C171.321 228.094 171.905 228.334 172.52 228.447L178.286 229.541C178.541 229.588 178.769 229.727 178.928 229.932C179.087 230.136 179.165 230.392 179.147 230.65C179.135 230.855 179.065 231.052 178.943 231.217C178.822 231.382 178.656 231.509 178.465 231.582L175.361 232.738C173.349 233.493 171.199 233.805 169.056 233.652C166.913 233.499 164.828 232.886 162.945 231.853L156.271 228.144C155.292 227.618 154.369 226.994 153.516 226.282L129.592 206.494C128.387 205.503 127.448 204.226 126.861 202.78C126.274 201.334 126.058 199.764 126.232 198.214Z" fill="#FFA8A7"/>
<path d="M142.877 185.619L145.275 167.771C145.424 166.555 145.332 165.321 145.004 164.141C144.676 162.96 144.118 161.856 143.363 160.89C142.609 159.925 141.671 159.118 140.604 158.515C139.538 157.912 138.363 157.525 137.146 157.377C135.93 157.228 134.696 157.32 133.516 157.648C132.335 157.976 131.231 158.533 130.266 159.288C129.3 160.043 128.493 160.981 127.89 162.047C127.288 163.114 126.901 164.289 126.752 165.505L124.75 183.718C127.469 185.289 130.489 186.268 133.613 186.592C136.737 186.915 139.894 186.576 142.877 185.596V185.619Z" fill="#455A64"/>
<path opacity="0.2" d="M142.877 185.619L145.275 167.771C145.424 166.555 145.332 165.321 145.004 164.141C144.676 162.96 144.118 161.856 143.363 160.89C142.609 159.925 141.671 159.118 140.604 158.515C139.538 157.912 138.363 157.525 137.146 157.377C135.93 157.228 134.696 157.32 133.516 157.648C132.335 157.976 131.231 158.533 130.266 159.288C129.3 160.043 128.493 160.981 127.89 162.047C127.288 163.114 126.901 164.289 126.752 165.505L124.75 183.718C127.469 185.289 130.489 186.268 133.613 186.592C136.737 186.915 139.894 186.576 142.877 185.596V185.619Z" fill="white"/>
<path d="M133.247 186.574C130.242 186.205 127.34 185.242 124.711 183.741L124.253 187.939C132.316 194.147 142.202 190.314 142.202 190.314L142.838 185.619C139.746 186.618 136.476 186.944 133.247 186.574Z" fill="#455A64"/>
<path opacity="0.5" d="M133.247 186.574C130.242 186.205 127.34 185.242 124.711 183.741L124.253 187.939C132.316 194.147 142.202 190.314 142.202 190.314L142.838 185.619C139.746 186.618 136.476 186.944 133.247 186.574Z" fill="white"/>
<path d="M342.945 246.59L355.532 246.962L368.119 246.59C368.654 255.126 367.001 263.755 364.712 267.984C364.17 269.069 363.298 269.955 362.221 270.514C358.504 272.663 352.506 272.663 348.812 270.514C347.721 269.944 346.848 269.03 346.329 267.914C344.047 263.662 342.41 255.048 342.945 246.59Z" fill="white"/>
<path d="M346.662 241.437C341.735 244.285 341.704 248.902 346.6 251.75C351.497 254.598 359.466 254.59 364.402 251.75C369.337 248.91 369.36 244.285 364.456 241.437C359.552 238.589 351.59 238.589 346.662 241.437Z" fill="#EBEBEB"/>
<path d="M348.61 242.57C344.73 244.789 344.73 248.39 348.564 250.617C352.397 252.844 358.605 252.836 362.454 250.617C366.303 248.398 366.334 244.789 362.493 242.57C358.652 240.35 352.459 240.35 348.61 242.57Z" fill="#E0E0E0"/>
<g opacity="0.15">
<path d="M348.61 242.57C344.73 244.789 344.73 248.39 348.564 250.617C352.397 252.844 358.605 252.836 362.454 250.617C366.303 248.398 366.334 244.789 362.493 242.57C358.652 240.35 352.459 240.35 348.61 242.57Z" fill="black"/>
</g>
<path d="M361.95 220.842C363.998 218.297 366.373 216.015 368.251 213.346C369.531 211.522 370.579 209.287 370.059 207.138C369.761 206.144 369.191 205.254 368.414 204.569C367.636 203.883 366.682 203.429 365.659 203.258C363.593 202.95 361.485 203.42 359.746 204.577C358.023 205.727 356.511 207.166 355.276 208.829C348.187 217.806 344.834 229.173 345.918 240.56C345.944 241.864 346.351 243.132 347.089 244.207C347.542 244.738 348.136 245.128 348.803 245.331C349.47 245.535 350.181 245.543 350.853 245.356C354.283 244.339 353.825 239.706 354.384 236.983C355.155 233.243 356.484 229.641 358.326 226.297C359.37 224.375 360.582 222.549 361.95 220.842Z" fill="#B4F09F"/>
<path opacity="0.2" d="M361.95 220.842C363.998 218.297 366.373 216.015 368.251 213.346C369.531 211.522 370.579 209.287 370.059 207.138C369.761 206.144 369.191 205.254 368.414 204.569C367.636 203.883 366.682 203.429 365.659 203.258C363.593 202.95 361.485 203.42 359.746 204.577C358.023 205.727 356.511 207.166 355.276 208.829C348.187 217.806 344.834 229.173 345.918 240.56C345.944 241.864 346.351 243.132 347.089 244.207C347.542 244.738 348.136 245.128 348.803 245.331C349.47 245.535 350.181 245.543 350.853 245.356C354.283 244.339 353.825 239.706 354.384 236.983C355.155 233.243 356.484 229.641 358.326 226.297C359.37 224.375 360.582 222.549 361.95 220.842Z" fill="white"/>
<path d="M350.636 241.879C350.702 241.865 350.762 241.829 350.806 241.777C350.849 241.725 350.874 241.66 350.876 241.592C351.117 236.09 352.909 217.311 365.853 206.672C365.884 206.648 365.91 206.618 365.929 206.583C365.948 206.549 365.96 206.51 365.964 206.471C365.967 206.432 365.963 206.392 365.95 206.355C365.938 206.317 365.918 206.282 365.892 206.253C365.868 206.222 365.837 206.196 365.803 206.177C365.769 206.158 365.731 206.146 365.692 206.142C365.653 206.137 365.614 206.141 365.576 206.152C365.538 206.163 365.503 206.182 365.473 206.206C352.335 217.024 350.519 236.028 350.279 241.592C350.277 241.671 350.305 241.748 350.359 241.806C350.413 241.864 350.487 241.898 350.566 241.902L350.636 241.879Z" fill="#F0F0F0"/>
<path d="M348.75 242.469C349.021 243.673 349.532 244.81 350.254 245.812C350.975 246.813 351.892 247.658 352.948 248.297C354.928 249.239 357.132 249.61 359.311 249.368C361.517 249.107 363.684 248.586 365.768 247.816C366.807 247.466 367.956 247.001 368.096 245.713C368.111 245.376 368.053 245.04 367.926 244.728C367.798 244.415 367.605 244.135 367.358 243.905C367.148 243.697 366.926 243.502 366.691 243.323C366.583 243.242 366.502 243.13 366.459 243.002C366.416 242.875 366.414 242.737 366.452 242.607C366.49 242.478 366.567 242.363 366.672 242.279C366.777 242.195 366.906 242.144 367.04 242.135C367.657 242.093 368.271 242.015 368.879 241.902C370.306 241.68 371.646 241.077 372.759 240.156C373.567 239.441 374.181 238.534 374.544 237.518C374.855 236.649 374.948 235.563 374.288 234.918C373.881 234.579 373.386 234.364 372.86 234.298C372.402 234.197 371.937 234.111 371.479 234.042C371.347 234.022 371.224 233.96 371.131 233.864C371.037 233.768 370.977 233.644 370.96 233.512C370.944 233.379 370.971 233.244 371.038 233.128C371.105 233.012 371.208 232.922 371.332 232.87L373.287 232.055C373.849 231.872 374.358 231.555 374.769 231.132C375.022 230.738 375.187 230.294 375.251 229.83C375.315 229.366 375.278 228.894 375.142 228.447C374.901 227.221 374.482 226.041 374.195 224.83C373.848 223.638 373.792 222.379 374.032 221.16C370.373 220.753 366.671 221 363.098 221.889C362.023 222.113 361.006 222.557 360.111 223.193C358.892 224.171 358.559 225.63 358.706 227.221C358.711 227.285 358.693 227.349 358.656 227.402C358.619 227.455 358.565 227.493 358.503 227.511C358.44 227.528 358.374 227.523 358.315 227.497C358.256 227.471 358.208 227.426 358.178 227.368L356.96 225.04C356.777 224.708 356.474 224.459 356.114 224.344C355.753 224.228 355.361 224.255 355.02 224.419C353.925 224.968 352.954 225.733 352.164 226.67C351.728 227.165 351.395 227.743 351.186 228.37C350.977 228.996 350.895 229.658 350.946 230.317C351.097 232.127 351.4 233.92 351.854 235.679C351.884 235.779 351.881 235.886 351.846 235.984C351.81 236.083 351.744 236.167 351.658 236.225C351.571 236.283 351.468 236.312 351.363 236.307C351.259 236.303 351.159 236.265 351.078 236.199H351.024C350.688 235.939 350.266 235.817 349.844 235.857C348.742 235.989 348.463 237.107 348.385 238.061C348.33 239.54 348.452 241.02 348.75 242.469Z" fill="#B4F09F"/>
<path opacity="0.2" d="M348.75 242.469C349.021 243.673 349.532 244.81 350.254 245.812C350.975 246.813 351.892 247.658 352.948 248.297C354.928 249.239 357.132 249.61 359.311 249.368C361.517 249.107 363.684 248.586 365.768 247.816C366.807 247.466 367.956 247.001 368.096 245.713C368.111 245.376 368.053 245.04 367.926 244.728C367.798 244.415 367.605 244.135 367.358 243.905C367.148 243.697 366.926 243.502 366.691 243.323C366.583 243.242 366.502 243.13 366.459 243.002C366.416 242.875 366.414 242.737 366.452 242.607C366.49 242.478 366.567 242.363 366.672 242.279C366.777 242.195 366.906 242.144 367.04 242.135C367.657 242.093 368.271 242.015 368.879 241.902C370.306 241.68 371.646 241.077 372.759 240.156C373.567 239.441 374.181 238.534 374.544 237.518C374.855 236.649 374.948 235.563 374.288 234.918C373.881 234.579 373.386 234.364 372.86 234.298C372.402 234.197 371.937 234.111 371.479 234.042C371.347 234.022 371.224 233.96 371.131 233.864C371.037 233.768 370.977 233.644 370.96 233.512C370.944 233.379 370.971 233.244 371.038 233.128C371.105 233.012 371.208 232.922 371.332 232.87L373.287 232.055C373.849 231.872 374.358 231.555 374.769 231.132C375.022 230.738 375.187 230.294 375.251 229.83C375.315 229.366 375.278 228.894 375.142 228.447C374.901 227.221 374.482 226.041 374.195 224.83C373.848 223.638 373.792 222.379 374.032 221.16C370.373 220.753 366.671 221 363.098 221.889C362.023 222.113 361.006 222.557 360.111 223.193C358.892 224.171 358.559 225.63 358.706 227.221C358.711 227.285 358.693 227.349 358.656 227.402C358.619 227.455 358.565 227.493 358.503 227.511C358.44 227.528 358.374 227.523 358.315 227.497C358.256 227.471 358.208 227.426 358.178 227.368L356.96 225.04C356.777 224.708 356.474 224.459 356.114 224.344C355.753 224.228 355.361 224.255 355.02 224.419C353.925 224.968 352.954 225.733 352.164 226.67C351.728 227.165 351.395 227.743 351.186 228.37C350.977 228.996 350.895 229.658 350.946 230.317C351.097 232.127 351.4 233.92 351.854 235.679C351.884 235.779 351.881 235.886 351.846 235.984C351.81 236.083 351.744 236.167 351.658 236.225C351.571 236.283 351.468 236.312 351.363 236.307C351.259 236.303 351.159 236.265 351.078 236.199H351.024C350.688 235.939 350.266 235.817 349.844 235.857C348.742 235.989 348.463 237.107 348.385 238.061C348.33 239.54 348.452 241.02 348.75 242.469Z" fill="black"/>
<path opacity="0.2" d="M348.75 242.469C349.021 243.673 349.532 244.81 350.254 245.812C350.975 246.813 351.892 247.658 352.948 248.297C354.928 249.239 357.132 249.61 359.311 249.368C361.517 249.107 363.684 248.586 365.768 247.816C366.807 247.466 367.956 247.001 368.096 245.713C368.111 245.376 368.053 245.04 367.926 244.728C367.798 244.415 367.605 244.135 367.358 243.905C367.148 243.697 366.926 243.502 366.691 243.323C366.583 243.242 366.502 243.13 366.459 243.002C366.416 242.875 366.414 242.737 366.452 242.607C366.49 242.478 366.567 242.363 366.672 242.279C366.777 242.195 366.906 242.144 367.04 242.135C367.657 242.093 368.271 242.015 368.879 241.902C370.306 241.68 371.646 241.077 372.759 240.156C373.567 239.441 374.181 238.534 374.544 237.518C374.855 236.649 374.948 235.563 374.288 234.918C373.881 234.579 373.386 234.364 372.86 234.298C372.402 234.197 371.937 234.111 371.479 234.042C371.347 234.022 371.224 233.96 371.131 233.864C371.037 233.768 370.977 233.644 370.96 233.512C370.944 233.379 370.971 233.244 371.038 233.128C371.105 233.012 371.208 232.922 371.332 232.87L373.287 232.055C373.849 231.872 374.358 231.555 374.769 231.132C375.022 230.738 375.187 230.294 375.251 229.83C375.315 229.366 375.278 228.894 375.142 228.447C374.901 227.221 374.482 226.041 374.195 224.83C373.848 223.638 373.792 222.379 374.032 221.16C370.373 220.753 366.671 221 363.098 221.889C362.023 222.113 361.006 222.557 360.111 223.193C358.892 224.171 358.559 225.63 358.706 227.221C358.711 227.285 358.693 227.349 358.656 227.402C358.619 227.455 358.565 227.493 358.503 227.511C358.44 227.528 358.374 227.523 358.315 227.497C358.256 227.471 358.208 227.426 358.178 227.368L356.96 225.04C356.777 224.708 356.474 224.459 356.114 224.344C355.753 224.228 355.361 224.255 355.02 224.419C353.925 224.968 352.954 225.733 352.164 226.67C351.728 227.165 351.395 227.743 351.186 228.37C350.977 228.996 350.895 229.658 350.946 230.317C351.097 232.127 351.4 233.92 351.854 235.679C351.884 235.779 351.881 235.886 351.846 235.984C351.81 236.083 351.744 236.167 351.658 236.225C351.571 236.283 351.468 236.312 351.363 236.307C351.259 236.303 351.159 236.265 351.078 236.199H351.024C350.688 235.939 350.266 235.817 349.844 235.857C348.742 235.989 348.463 237.107 348.385 238.061C348.33 239.54 348.452 241.02 348.75 242.469Z" fill="white"/>
<path d="M354.547 248.002C355.232 245.063 356.218 242.203 357.488 239.466C357.489 239.424 357.498 239.382 357.515 239.343C357.533 239.305 357.558 239.27 357.589 239.241L357.798 238.798C357.44 235.392 356.45 232.081 354.88 229.036C354.843 228.967 354.833 228.886 354.853 228.809C354.873 228.733 354.922 228.667 354.989 228.625C355.059 228.586 355.142 228.576 355.219 228.598C355.296 228.62 355.361 228.672 355.4 228.742C356.871 231.578 357.842 234.647 358.271 237.813C360.762 232.816 364.736 226.949 370.866 222.712C370.932 222.667 371.013 222.65 371.091 222.665C371.17 222.679 371.239 222.724 371.285 222.79C371.307 222.822 371.323 222.858 371.331 222.896C371.339 222.934 371.339 222.973 371.332 223.011C371.325 223.05 371.31 223.086 371.289 223.119C371.267 223.151 371.24 223.179 371.207 223.201C364.883 227.609 360.894 233.708 358.473 238.767C361.736 237.294 365.358 236.803 368.895 237.355C368.973 237.372 369.042 237.419 369.087 237.485C369.132 237.552 369.149 237.633 369.135 237.712C369.124 237.771 369.094 237.824 369.051 237.866C369.008 237.908 368.954 237.935 368.895 237.945H368.778C368.724 237.945 363.005 236.897 358.054 239.66C356.794 242.369 355.816 245.201 355.136 248.11C355.123 248.168 355.093 248.221 355.05 248.262C355.008 248.303 354.954 248.332 354.896 248.343H354.779C354.704 248.328 354.637 248.284 354.593 248.22C354.55 248.156 354.533 248.078 354.547 248.002Z" fill="#F0F0F0"/>
<path d="M67.7681 272.306L53.4431 272.725L39.1259 272.306C38.5051 281.975 40.3986 291.83 43.0059 296.649C43.6213 297.889 44.6162 298.901 45.8461 299.536C50.0675 301.98 56.8963 301.98 61.0945 299.536C62.3407 298.892 63.3372 297.852 63.9269 296.579C66.511 291.729 68.3811 281.929 67.7681 272.306Z" fill="white"/>
<path d="M63.5388 266.44C69.1493 269.683 69.1803 274.929 63.6086 278.173C58.0369 281.416 48.9655 281.409 43.355 278.173C37.7445 274.937 37.7135 269.683 43.2852 266.44C48.8569 263.196 57.9283 263.204 63.5388 266.44Z" fill="#EBEBEB"/>
<path d="M61.3041 267.72C65.6807 270.25 65.704 274.347 61.3584 276.877C57.0128 279.407 49.9357 279.399 45.5591 276.877C41.1824 274.355 41.1591 270.25 45.5047 267.72C49.8503 265.19 56.943 265.206 61.3041 267.72Z" fill="#E0E0E0"/>
<g opacity="0.15">
<path d="M61.3041 267.72C65.6807 270.25 65.704 274.347 61.3584 276.877C57.0128 279.407 49.9357 279.399 45.5591 276.877C41.1824 274.355 41.1591 270.25 45.5047 267.72C49.8503 265.19 56.943 265.206 61.3041 267.72Z" fill="black"/>
</g>
<path d="M76.9948 211.196C44.7209 221.765 44.4028 243.354 51.7049 258.726C53.5363 261.83 59.0924 263.514 63.9192 244.393L55.4452 245.48L65.3237 240.467L67.8923 232.8L59.6512 233.413L70.1116 229.013C72.0354 222.938 74.3342 216.987 76.9948 211.196Z" fill="#B4F09F"/>
<path opacity="0.2" d="M76.9948 211.196C44.7209 221.765 44.4028 243.354 51.7049 258.726C53.5363 261.83 59.0924 263.514 63.9192 244.393L55.4452 245.48L65.3237 240.467L67.8923 232.8L59.6512 233.413L70.1116 229.013C72.0354 222.938 74.3342 216.987 76.9948 211.196Z" fill="black"/>
<path opacity="0.2" d="M76.9948 211.196C44.7209 221.765 44.4028 243.354 51.7049 258.726C53.5363 261.83 59.0924 263.514 63.9192 244.393L55.4452 245.48L65.3237 240.467L67.8923 232.8L59.6512 233.413L70.1116 229.013C72.0354 222.938 74.3342 216.987 76.9948 211.196Z" fill="white"/>
<path d="M67.8611 216.597C50.8434 229.51 49.3069 244.324 54.1181 259.782C52.4187 246.17 50.5796 232.404 67.8611 216.597Z" fill="white"/>
<path d="M22.3333 233.126C54.1493 237.603 58.0293 257.663 53.7768 273.191C52.5895 276.396 47.6929 278.879 40.0183 261.869L48.112 261.512L38.024 258.455L34.3613 251.734L42.1213 250.958L31.653 248.63C28.8653 243.277 25.7529 238.099 22.3333 233.126Z" fill="#B4F09F"/>
<path opacity="0.2" d="M22.3333 233.126C54.1493 237.603 58.0293 257.663 53.7768 273.191C52.5895 276.396 47.6929 278.879 40.0183 261.869L48.112 261.512L38.024 258.455L34.3613 251.734L42.1213 250.958L31.653 248.63C28.8653 243.277 25.7529 238.099 22.3333 233.126Z" fill="white"/>
<path opacity="0.1" d="M22.3333 233.126C54.1493 237.603 58.0293 257.663 53.7768 273.191C52.5895 276.396 47.6929 278.879 40.0183 261.869L48.112 261.512L38.024 258.455L34.3613 251.734L42.1213 250.958L31.653 248.63C28.8653 243.277 25.7529 238.099 22.3333 233.126Z" fill="black"/>
<path d="M31.7307 236.68C49.7262 245.883 53.6139 259.417 51.705 274.611C51.0298 261.613 50.4401 248.491 31.7307 236.68Z" fill="white"/>
<path d="M86.2989 240.645C57.1291 241.119 51.3789 258.765 53.4741 273.237C54.1881 276.256 58.3241 279.042 67.1473 264.569L59.9072 263.312L69.289 261.706L73.3475 256.08L66.4256 254.489L76.1256 253.535C79.2488 249.033 82.6463 244.729 86.2989 240.645Z" fill="#B4F09F"/>
<path d="M77.437 242.756C60.1865 249.034 55.1658 260.806 55.189 274.712C57.2454 263.111 59.232 251.346 77.437 242.756Z" fill="white"/>
<path opacity="0.2" d="M86.2989 240.645C57.1291 241.119 51.3789 258.765 53.4741 273.237C54.1881 276.256 58.3241 279.042 67.1473 264.569L59.9072 263.312L69.289 261.706L73.3475 256.08L66.4256 254.489L76.1256 253.535C79.2488 249.033 82.6463 244.729 86.2989 240.645Z" fill="white"/>
<path d="M254.528 211.491C246.869 216.814 238.232 220.493 231.845 227.624C219.903 240.94 219.623 262.373 229.005 277.606C238.387 292.839 255.839 301.988 273.61 304.083C292.234 306.287 311.812 301.135 326.44 289.339C341.067 277.544 350.372 259.192 350.364 240.451C350.356 221.711 340.741 202.986 325.02 192.727C310.671 183.415 290.061 180.707 275.666 191.408C268.395 196.84 263.537 204.81 256.266 210.242C255.738 210.661 255.149 211.072 254.528 211.491Z" fill="#F09FBF"/>
<path opacity="0.2" d="M254.528 211.491C246.869 216.814 238.232 220.493 231.845 227.624C219.903 240.94 219.623 262.373 229.005 277.606C238.387 292.839 255.839 301.988 273.61 304.083C292.234 306.287 311.812 301.135 326.44 289.339C341.067 277.544 350.372 259.192 350.364 240.451C350.356 221.711 340.741 202.986 325.02 192.727C310.671 183.415 290.061 180.707 275.666 191.408C268.395 196.84 263.537 204.81 256.266 210.242C255.738 210.661 255.149 211.072 254.528 211.491Z" fill="black"/>
<path opacity="0.1" d="M254.528 211.491C246.869 216.814 238.232 220.493 231.845 227.624C219.903 240.94 219.623 262.373 229.005 277.606C238.387 292.839 255.839 301.988 273.61 304.083C292.234 306.287 311.812 301.135 326.44 289.339C341.067 277.544 350.372 259.192 350.364 240.451C350.356 221.711 340.741 202.986 325.02 192.727C310.671 183.415 290.061 180.707 275.666 191.408C268.395 196.84 263.537 204.81 256.266 210.242C255.738 210.661 255.149 211.072 254.528 211.491Z" fill="white"/>
<path opacity="0.1" d="M257.679 289.533C257.679 289.401 257.717 289.277 257.733 289.153C258.372 285.005 260.29 281.16 263.217 278.152C266.145 275.145 269.938 273.126 274.068 272.376C281.471 270.966 288.566 268.252 295.02 264.36C299.59 261.597 303.913 258.206 309.042 256.709C314.034 255.276 319.365 255.585 324.158 257.585C319.844 253.061 312.456 251.067 306.551 253.116C310.633 246.853 314.233 240.118 315.646 232.777C317.058 225.436 316.049 217.373 311.626 211.351C309.743 208.776 307.311 206.652 304.507 205.13C301.703 203.609 298.596 202.729 295.41 202.554C292.225 202.378 289.04 202.912 286.086 204.117C283.132 205.322 280.482 207.167 278.328 209.52C273.944 214.316 271.476 221.067 268.597 226.887C266.525 231.069 264.391 235.353 260.977 238.527C255.839 243.338 248.436 245.069 243.129 249.67C237.084 254.893 234.476 263.235 234.453 271.22C234.546 276.608 235.328 281.962 236.781 287.151C243.031 293.12 250.488 297.679 258.649 300.521C257.465 296.986 257.133 293.221 257.679 289.533Z" fill="black"/>
<path d="M340.392 237.867C340.15 224.907 335.321 212.453 326.764 202.717C318.207 192.981 306.475 186.593 293.654 184.688C291.875 184.865 290.109 185.16 288.369 185.573C301.854 186.288 314.567 192.085 323.95 201.796C333.333 211.508 338.69 224.412 338.941 237.914C339.291 255.382 330.739 273.191 316.08 285.545C304.596 295.229 289.339 301.654 272.562 303.959C272.919 304.014 273.284 304.06 273.641 304.099C275.146 304.277 276.66 304.402 278.181 304.487C293.08 301.592 306.574 295.454 316.981 286.639C332.004 273.998 340.742 255.77 340.392 237.867Z" fill="white"/>
<path d="M250.912 302.376L252.836 306.186C255.545 303.672 256.041 301.647 256.041 301.647C255.164 298.543 254.14 295.384 253.628 293.848C253.372 295.99 251.913 297.829 251.3 299.916C251.074 300.718 250.944 301.544 250.912 302.376Z" fill="#37474F"/>
<path d="M251.005 306.279L252.836 306.186L250.912 302.376C250.858 303.664 250.966 304.968 251.005 306.279Z" fill="#263238"/>
<path d="M252.402 289.355C251.738 288.394 250.976 287.504 250.128 286.701C250.592 288.365 250.579 290.127 250.089 291.784C249.523 293.988 248.491 296.059 247.971 298.279C247.342 300.979 247.49 303.882 246.341 306.411C245.773 307.639 244.927 308.717 243.87 309.56C242.812 310.404 241.573 310.989 240.25 311.269C239.274 311.541 238.231 311.415 237.347 310.92C236.976 310.656 236.703 310.277 236.571 309.841C235.996 311.044 235.296 312.183 234.484 313.24C233.584 314.404 232.459 315.692 232.707 317.12C232.853 317.716 233.173 318.256 233.626 318.67C234.079 319.085 234.645 319.355 235.252 319.448C236.468 319.619 237.706 319.515 238.876 319.145C241.448 318.59 243.904 317.589 246.132 316.189C248.377 314.755 250.018 312.546 250.741 309.981C251.005 308.745 251.099 307.479 251.02 306.217C251.02 304.914 250.873 303.602 250.927 302.337C250.957 301.505 251.085 300.68 251.308 299.877C251.928 297.79 253.387 295.951 253.636 293.809C253.636 293.693 253.674 293.584 253.682 293.468C253.699 291.996 253.251 290.557 252.402 289.355Z" fill="#455A64"/>
<path opacity="0.1" d="M252.402 289.355C251.738 288.394 250.976 287.504 250.128 286.701C250.592 288.365 250.579 290.127 250.089 291.784C249.523 293.988 248.491 296.059 247.971 298.279C247.342 300.979 247.49 303.882 246.341 306.411C245.773 307.639 244.927 308.717 243.87 309.56C242.812 310.404 241.573 310.989 240.25 311.269C239.274 311.541 238.231 311.415 237.347 310.92C236.976 310.656 236.703 310.277 236.571 309.841C235.996 311.044 235.296 312.183 234.484 313.24C233.584 314.404 232.459 315.692 232.707 317.12C232.853 317.716 233.173 318.256 233.626 318.67C234.079 319.085 234.645 319.355 235.252 319.448C236.468 319.619 237.706 319.515 238.876 319.145C241.448 318.59 243.904 317.589 246.132 316.189C248.377 314.755 250.018 312.546 250.741 309.981C251.005 308.745 251.099 307.479 251.02 306.217C251.02 304.914 250.873 303.602 250.927 302.337C250.957 301.505 251.085 300.68 251.308 299.877C251.928 297.79 253.387 295.951 253.636 293.809C253.636 293.693 253.674 293.584 253.682 293.468C253.699 291.996 253.251 290.557 252.402 289.355Z" fill="black"/>
<path d="M240.249 311.269C241.573 310.989 242.812 310.404 243.87 309.56C244.927 308.717 245.773 307.639 246.341 306.411C247.49 303.882 247.342 300.979 247.971 298.279C248.491 296.06 249.523 293.988 250.089 291.784C250.579 290.127 250.592 288.365 250.128 286.701C249.911 286.484 249.693 286.266 249.468 286.057C246.194 287.749 242.484 289.161 239.497 291.318C239.561 295.139 239.317 298.959 238.767 302.741C238.362 305.198 237.617 307.588 236.556 309.841C236.688 310.277 236.961 310.656 237.332 310.92C237.771 311.167 238.255 311.325 238.756 311.385C239.256 311.445 239.764 311.406 240.249 311.269Z" fill="#AB6160"/>
<path d="M229.129 301.197C228.594 304.355 226.173 310.788 226.173 310.788C226.173 310.788 237.51 311.246 237.766 310.726L241.095 305.573L229.129 301.197Z" fill="#C48281"/>
<path d="M263.064 226.018L234.158 242.112C231.536 243.573 229.439 245.82 228.162 248.536C226.885 251.252 226.494 254.301 227.042 257.252L232.653 287.516L228.051 302.143C232.024 307.467 241.142 307.738 241.142 307.738C246.233 297.534 249.965 293.204 252.852 284.652C255.739 276.101 257.671 270.203 257.671 270.203L281.727 263.638C287.221 262.144 292.142 259.037 295.853 254.719C299.565 250.4 301.896 245.068 302.547 239.412C302.958 235.78 302.974 233.304 302.974 233.304L263.064 226.018Z" fill="#455A64"/>
<path opacity="0.2" d="M261.124 235.539C261.128 238.768 262.274 241.89 264.36 244.355L246.132 255.739C243.134 257.613 240.913 260.506 239.877 263.887L232.653 287.516L239.171 261.202C239.921 258.175 241.826 255.562 244.479 253.923L261.147 243.664C259.223 238.853 261.124 235.539 261.124 235.539Z" fill="black"/>
<path d="M232.327 325.454L232.59 329.707C236.075 328.465 237.324 326.797 237.324 326.797C237.735 323.592 238.038 320.286 238.178 318.672C237.091 320.542 235.027 321.66 233.638 323.328C233.113 323.979 232.673 324.693 232.327 325.454Z" fill="#37474F"/>
<path d="M230.875 329.071L232.59 329.707L232.327 325.454C231.768 326.611 231.349 327.86 230.875 329.071Z" fill="#263238"/>
<path d="M238.806 314.055C238.574 312.913 238.226 311.797 237.766 310.726C237.537 312.437 236.833 314.051 235.733 315.382C234.344 317.182 232.575 318.68 231.232 320.511C229.587 322.754 228.578 325.478 226.538 327.348C225.532 328.254 224.329 328.914 223.023 329.275C221.718 329.636 220.347 329.688 219.018 329.428C218.017 329.29 217.111 328.763 216.496 327.961C216.251 327.573 216.142 327.114 216.186 326.657C215.185 327.543 214.095 328.323 212.934 328.985C211.646 329.707 210.102 330.444 209.76 331.88C209.669 332.48 209.755 333.094 210.009 333.646C210.263 334.198 210.673 334.663 211.188 334.984C212.237 335.619 213.414 336.011 214.634 336.132C217.219 336.633 219.871 336.678 222.471 336.264C225.093 335.834 227.463 334.453 229.129 332.384C229.861 331.351 230.449 330.223 230.875 329.032C231.349 327.821 231.768 326.572 232.327 325.416C232.673 324.657 233.114 323.945 233.638 323.297C235.027 321.621 237.091 320.504 238.178 318.641C238.232 318.548 238.302 318.455 238.356 318.346C238.955 316.999 239.113 315.497 238.806 314.055Z" fill="#455A64"/>
<path d="M219.018 329.435C220.347 329.696 221.718 329.644 223.023 329.283C224.328 328.922 225.532 328.262 226.538 327.356C228.578 325.485 229.587 322.762 231.232 320.519C232.575 318.688 234.336 317.19 235.733 315.39C236.833 314.058 237.537 312.445 237.766 310.734L237.417 309.88C233.739 310.152 229.766 309.973 226.173 310.796C224.733 314.334 223.007 317.75 221.012 321.008C219.677 323.113 218.052 325.02 216.186 326.673C216.142 327.13 216.251 327.588 216.496 327.976C217.112 328.776 218.018 329.3 219.018 329.435Z" fill="#C48281"/>
<path d="M292.738 183.283C297.449 172.333 297.727 159.981 293.514 148.829C292.164 145.306 290.255 141.845 287.128 139.696C283.124 136.995 277.948 137.034 273.121 137.174C270.56 137.251 267.945 137.329 265.539 138.213C264.341 138.62 263.259 139.313 262.387 140.231C261.515 141.148 260.879 142.264 260.534 143.482C257.376 142.9 254.194 145.391 253.341 148.488C252.487 151.584 253.604 154.952 255.568 157.497C257.531 160.042 260.224 161.866 262.986 163.534C261.326 164.403 260.1 166.405 259.525 168.19C258.951 169.983 259.087 171.927 259.906 173.622C258.418 173.637 256.971 174.108 255.76 174.971C254.549 175.834 253.631 177.048 253.131 178.449C252.728 179.851 252.666 181.33 252.951 182.761C253.236 184.192 253.859 185.534 254.768 186.675C256.622 188.95 259.175 190.549 262.032 191.222C264.874 191.886 267.811 192.043 270.708 191.688C273.703 194.59 279.189 194.528 282.953 192.727C286.716 190.927 291.07 187.101 292.738 183.283Z" fill="#263238"/>
<path d="M265.927 175.997H265.19C260.263 176.051 254.024 179.411 250.974 188.009L239.132 210.948L252.65 216.939L260.045 195.288L265.927 175.997Z" fill="#C48281"/>
<path d="M256.429 191.222C255.49 193.93 255.428 196.848 255.281 199.758C255.133 202.668 254.8 206.075 253.488 208.628C252.043 207.627 250.312 207.12 248.555 207.185C246.799 207.249 245.11 207.881 243.742 208.985C242.758 209.815 242.005 210.884 241.553 212.089L252.65 217.008L260.045 195.358L263.685 183.423C262.02 184.18 260.522 185.258 259.277 186.597C258.031 187.935 257.064 189.507 256.429 191.222Z" fill="#AB6160"/>
<path d="M252.774 212.81C252.262 211.532 251.431 210.407 250.361 209.542C249.29 208.676 248.016 208.1 246.659 207.867C243.951 207.425 240.886 208.845 239.132 210.971C237.658 212.748 237.89 215.161 238.822 217.28C239.6 218.924 240.923 220.247 242.567 221.026C244.211 221.804 246.074 221.988 247.839 221.548C251.331 220.562 254.093 216.186 252.774 212.81Z" fill="#C48281"/>
<path d="M267.169 175.578C261.954 176.408 258.718 189.6 257.027 194.613C255.273 199.789 257.655 203.545 260.309 206.672C260.789 207.24 261.145 207.902 261.355 208.616C261.564 209.329 261.623 210.078 261.527 210.816L256.08 231.201C271.057 242.322 296.168 236.936 302.981 233.304C303.06 226.183 301.558 219.133 298.581 212.663C296.575 208.484 295.445 203.939 295.26 199.308L295.004 191.827L296.812 178.915L283.806 175.811L272.345 175.298C270.616 175.293 268.887 175.387 267.169 175.578Z" fill="#F09FBF"/>
<path opacity="0.4" d="M267.169 175.578C261.954 176.408 258.718 189.6 257.027 194.613C255.273 199.789 257.655 203.545 260.309 206.672C260.789 207.24 261.145 207.902 261.355 208.616C261.564 209.329 261.623 210.078 261.527 210.816L256.08 231.201C271.057 242.322 296.168 236.936 302.981 233.304C303.06 226.183 301.558 219.133 298.581 212.663C296.575 208.484 295.445 203.939 295.26 199.308L295.004 191.827L296.812 178.915L283.806 175.811L272.345 175.298C270.616 175.293 268.887 175.387 267.169 175.578Z" fill="black"/>
<path d="M267.053 234.476C267.053 234.476 267.053 234.476 267.053 234.43C267.053 234.383 267.053 234.383 267.053 234.336V234.29V234.251V234.205L258.206 217.73V217.683V217.637V217.59L258.167 217.536V217.482C258.129 217.427 258.129 217.427 258.09 217.373L258.043 217.327L258.004 217.272V217.233V217.195V217.156L257.873 217.039H257.826H257.787H257.741H257.686L257.632 217.001H257.57L245.992 210.094H245.93H245.876H245.813H245.759H245.705H245.651H245.604H245.55H245.488H245.433H245.371H245.216C245.158 210.096 245.103 210.118 245.061 210.156L243.85 211.545H243.889C243.788 211.623 243.78 211.786 243.928 212.057L252.774 228.532C253.269 229.295 253.94 229.928 254.73 230.379L264.903 236.106C265.423 236.401 265.741 236.408 265.788 236.191C265.788 236.191 265.788 236.269 265.788 236.284L267.006 234.895C267.01 234.875 267.01 234.854 267.006 234.833C267.01 234.815 267.01 234.797 267.006 234.779L267.053 234.476ZM244.114 211.258C244.114 211.258 244.114 211.258 244.184 211.258H244.223H244.114ZM255.754 217.831C255.847 217.909 255.948 217.986 256.033 218.071C255.971 217.986 255.87 217.909 255.777 217.831H255.754ZM256.39 218.452L256.515 218.584L256.39 218.452ZM265.834 235.904C265.82 235.787 265.783 235.673 265.726 235.57C265.779 235.664 265.815 235.767 265.834 235.873C265.834 235.873 265.827 235.857 265.834 235.904Z" fill="#455A64"/>
<path opacity="0.15" d="M267.053 234.476C267.053 234.476 267.053 234.476 267.053 234.43C267.053 234.383 267.053 234.383 267.053 234.336V234.29V234.251V234.205L258.206 217.73L256.856 219.065L265.71 235.539C265.763 235.633 265.8 235.736 265.819 235.842C265.828 235.874 265.829 235.907 265.823 235.94C265.816 235.972 265.801 236.003 265.78 236.028L266.998 234.639C267.002 234.619 267.002 234.598 266.998 234.577C267.002 234.559 267.002 234.541 266.998 234.523L267.053 234.476Z" fill="white"/>
<path opacity="0.2" d="M258.059 217.629V217.583V217.536L258.02 217.482V217.427C257.981 217.373 257.981 217.373 257.942 217.319L257.896 217.272L257.857 217.218V217.179V217.14V217.101L257.725 216.985H257.678H257.64H257.593H257.539L257.484 216.946H257.422L245.992 210.094H245.93H245.875H245.813H245.759H245.705H245.65H245.604H245.55H245.487H245.433H245.371H245.216C245.158 210.096 245.103 210.118 245.061 210.156L243.85 211.545C243.907 211.483 244.008 211.468 244.153 211.499C244.349 211.55 244.537 211.628 244.711 211.732L254.885 217.458C255.089 217.569 255.284 217.696 255.467 217.839C255.662 217.988 255.849 218.149 256.026 218.32C256.198 218.479 256.359 218.65 256.507 218.832C256.633 218.981 256.745 219.142 256.84 219.313L258.059 217.924V217.629Z" fill="white"/>
<path d="M301.802 183.229C300.359 180.754 298.465 178.852 295.594 178.635C295.594 178.635 290.938 181.056 290.938 192.044L291.248 219.538C290.573 219.81 289.898 220.097 289.231 220.376C283.555 222.817 277.623 224.61 271.546 225.723C268.377 223.206 264.433 221.868 260.387 221.936L261.884 224.73C259.044 226.553 252.619 223.271 252.619 223.271C252.146 227.275 254.745 231.434 258.191 233.537C261.636 235.64 294.492 232.552 301.46 228.043C306.047 225.079 304.96 196.732 304.96 196.732C305.276 192.017 304.176 187.315 301.802 183.229Z" fill="#C48281"/>
<path d="M245.674 214.952C245.455 216.033 245.33 217.132 245.301 218.234C245.556 220.862 246.669 223.333 248.467 225.265C248.84 225.689 249.308 226.019 249.833 226.227C250.091 226.328 250.37 226.358 250.643 226.314C250.916 226.27 251.172 226.155 251.385 225.979C251.771 225.517 251.968 224.927 251.936 224.326C252.023 223.437 251.974 222.539 251.789 221.664C251.607 220.78 251.107 219.993 250.384 219.453C249.826 219.122 249.229 218.862 248.607 218.677C248.01 218.415 247.48 218.023 247.055 217.528L245.674 214.952Z" fill="#C48281"/>
<path d="M272.306 170.2V180.583C271.289 181.545 270.312 182.647 270.219 184.021C270.201 184.678 270.365 185.328 270.692 185.899C271.019 186.47 271.497 186.939 272.073 187.257C273.247 187.878 274.619 188.012 275.891 187.629C277.15 187.241 278.304 186.572 279.267 185.674C280.633 184.411 281.734 182.89 282.507 181.198C283.279 179.506 283.708 177.677 283.768 175.818V165.288L272.306 170.2Z" fill="#C48281"/>
<path d="M283.325 165.288C282.239 170.999 280.012 175.95 272.306 177.704V170.161L283.325 165.288Z" fill="#AB6160"/>
<path d="M280.633 159.282C280.52 160.197 280.52 161.122 280.633 162.037C280.759 162.727 281.104 163.359 281.618 163.837C281.868 164.064 282.17 164.226 282.498 164.308C282.825 164.391 283.168 164.392 283.496 164.31C283.279 163.41 283.417 162.461 283.883 161.661C284.348 160.86 285.105 160.271 285.994 160.014C286.884 159.758 287.838 159.855 288.658 160.286C289.478 160.716 290.1 161.446 290.395 162.324C290.577 162.956 290.619 163.622 290.515 164.272C290.412 164.923 290.167 165.542 289.797 166.087C289.048 167.174 288.057 168.071 286.903 168.71C286.238 168.963 285.505 168.974 284.833 168.741C284.16 168.509 283.591 168.047 283.224 167.438C279.911 172.008 273.959 175.578 268.24 175.329C266.674 175.311 265.147 174.842 263.84 173.979C261.621 172.427 261.357 169.89 260.984 167.406C260.448 164.275 260.341 161.084 260.666 157.924C261.186 153.563 262.94 149.217 266.191 146.284C268.496 155.611 277.296 158.723 280.633 159.282Z" fill="#C48281"/>
<path d="M268.713 158.692L265.004 163.666L268.69 164.768L268.713 158.692Z" fill="#AB6160"/>
<path d="M272.12 166.98L269.117 168.066C269.329 168.415 269.649 168.685 270.028 168.836C270.408 168.987 270.826 169.011 271.22 168.904C271.567 168.734 271.846 168.451 272.01 168.101C272.173 167.751 272.212 167.355 272.12 166.98Z" fill="#AB6160"/>
<path opacity="0.3" d="M272.12 166.98L269.117 168.066C269.329 168.415 269.649 168.685 270.028 168.836C270.408 168.987 270.826 169.011 271.22 168.904C271.567 168.734 271.846 168.451 272.01 168.101C272.173 167.751 272.212 167.355 272.12 166.98Z" fill="black"/>
<path d="M270.219 168.896C270.545 168.993 270.893 168.993 271.22 168.896C271.493 168.773 271.725 168.574 271.888 168.322C272.05 168.07 272.136 167.776 272.135 167.476C271.696 167.422 271.252 167.538 270.896 167.8C270.539 168.063 270.297 168.453 270.219 168.889V168.896Z" fill="#AB6160"/>
<path d="M274.13 159.476C274.13 159.691 274.066 159.901 273.946 160.08C273.826 160.259 273.656 160.398 273.457 160.48C273.258 160.562 273.039 160.583 272.828 160.541C272.617 160.498 272.424 160.394 272.272 160.241C272.121 160.088 272.018 159.894 271.977 159.683C271.936 159.472 271.958 159.253 272.042 159.055C272.125 158.856 272.266 158.687 272.445 158.569C272.625 158.45 272.836 158.388 273.051 158.389C273.193 158.389 273.334 158.417 273.466 158.472C273.597 158.527 273.716 158.607 273.816 158.708C273.917 158.809 273.996 158.929 274.05 159.061C274.103 159.192 274.131 159.333 274.13 159.476Z" fill="#263238"/>
<path d="M265.027 159.08C265.023 159.367 264.906 159.642 264.701 159.844C264.497 160.045 264.221 160.159 263.933 160.159C263.645 160.159 263.369 160.044 263.165 159.84C262.961 159.637 262.847 159.36 262.847 159.072C262.847 158.784 262.961 158.508 263.165 158.304C263.369 158.1 263.645 157.986 263.933 157.986C264.077 157.986 264.219 158.014 264.352 158.069C264.485 158.124 264.605 158.205 264.707 158.306C264.808 158.408 264.889 158.529 264.944 158.661C264.999 158.794 265.027 158.936 265.027 159.08Z" fill="#263238"/>
<path d="M263.987 154.765L261.574 156.418C261.472 156.12 261.463 155.797 261.549 155.493C261.635 155.19 261.812 154.92 262.055 154.719C262.349 154.546 262.686 154.458 263.028 154.466C263.369 154.475 263.702 154.578 263.987 154.765Z" fill="#263238"/>
<path d="M273.276 154.672L275.674 156.348C275.78 156.051 275.794 155.728 275.712 155.423C275.63 155.118 275.457 154.845 275.216 154.641C274.922 154.465 274.584 154.375 274.242 154.38C273.899 154.386 273.564 154.487 273.276 154.672Z" fill="#263238"/>
</svg>
