<svg width="298" height="298" viewBox="0 0 298 298" fill="none" xmlns="http://www.w3.org/2000/svg">
<path d="M298 227.91H0V228.059H298V227.91Z" fill="#EBEBEB"/>
<path d="M268.141 237.5H255.219V237.649H268.141V237.5Z" fill="#EBEBEB"/>
<path d="M205.423 234.413H185.094V234.562H205.423V234.413Z" fill="#EBEBEB"/>
<path d="M262.908 231.969H236.368V232.118H262.908V231.969Z" fill="#EBEBEB"/>
<path d="M103.12 234.973H96.4805V235.122H103.12V234.973Z" fill="#EBEBEB"/>
<path d="M91.1702 234.973H68.2898V235.122H91.1702V234.973Z" fill="#EBEBEB"/>
<path d="M56.03 232.458H39.5208V232.607H56.03V232.458Z" fill="#EBEBEB"/>
<path d="M141.252 201.329H26.1704C25.2689 201.327 24.4048 200.968 23.7678 200.33C23.1309 199.692 22.7732 198.827 22.7732 197.926V36.1534C22.781 35.257 23.1422 34.3999 23.7783 33.7683C24.4144 33.1367 25.274 32.7815 26.1704 32.78H141.252C142.155 32.78 143.02 33.1385 143.658 33.7768C144.297 34.415 144.655 35.2806 144.655 36.1832V197.926C144.655 198.828 144.297 199.694 143.658 200.332C143.02 200.97 142.155 201.329 141.252 201.329ZM26.1704 32.8992C25.3084 32.9008 24.4822 33.2443 23.8732 33.8544C23.2642 34.4645 22.9222 35.2913 22.9222 36.1534V197.926C22.9222 198.788 23.2642 199.614 23.8732 200.225C24.4822 200.835 25.3084 201.178 26.1704 201.18H141.252C142.115 201.178 142.941 200.835 143.551 200.225C144.161 199.615 144.505 198.788 144.506 197.926V36.1534C144.505 35.2908 144.161 34.464 143.551 33.8541C142.941 33.2441 142.115 32.9008 141.252 32.8992H26.1704Z" fill="#EBEBEB"/>
<path d="M270.173 201.329H155.085C154.183 201.327 153.319 200.968 152.681 200.33C152.043 199.692 151.684 198.828 151.682 197.926V36.1534C151.692 35.2564 152.054 34.3994 152.691 33.7679C153.328 33.1365 154.188 32.7815 155.085 32.78H270.173C271.068 32.7831 271.926 33.1389 272.561 33.7704C273.196 34.4018 273.556 35.258 273.564 36.1534V197.926C273.564 198.826 273.207 199.69 272.572 200.328C271.936 200.966 271.073 201.326 270.173 201.329ZM155.085 32.8992C154.223 32.9008 153.396 33.2441 152.786 33.8541C152.176 34.464 151.833 35.2908 151.831 36.1534V197.926C151.833 198.788 152.176 199.615 152.786 200.225C153.396 200.835 154.223 201.178 155.085 201.18H270.173C271.035 201.178 271.862 200.835 272.472 200.225C273.082 199.615 273.425 198.788 273.427 197.926V36.1534C273.425 35.2908 273.082 34.464 272.472 33.8541C271.862 33.2441 271.035 32.9008 270.173 32.8992H155.085Z" fill="#EBEBEB"/>
<path d="M68.54 104.079C71.8452 104.079 75.0151 102.766 77.3522 100.429C79.6894 98.0922 81.0024 94.9223 81.0024 91.6171C81.0024 88.3119 79.6894 85.142 77.3522 82.8049C75.0151 80.4678 71.8452 79.1548 68.54 79.1548H67.0083V104.079H68.54Z" fill="#E0E0E0"/>
<path d="M66.9963 104.079C73.8791 104.079 79.4587 98.4999 79.4587 91.6171C79.4587 84.7343 73.8791 79.1548 66.9963 79.1548C60.1135 79.1548 54.5339 84.7343 54.5339 91.6171C54.5339 98.4999 60.1135 104.079 66.9963 104.079Z" fill="#F5F5F5"/>
<path d="M66.4241 93.1786C61.9982 93.1786 57.7535 91.4205 54.6239 88.2908C51.4943 85.1612 49.7361 80.9166 49.7361 76.4906V66.5315C49.7361 66.1158 49.9012 65.7171 50.1952 65.4231C50.4891 65.1291 50.8878 64.964 51.3036 64.964C51.7193 64.964 52.118 65.1291 52.4119 65.4231C52.7059 65.7171 52.871 66.1158 52.871 66.5315V76.4966C52.8742 80.0891 54.3023 83.5336 56.842 86.0745C59.3817 88.6153 62.8256 90.0449 66.4181 90.0496C66.6317 90.0365 66.8457 90.0671 67.047 90.1398C67.2482 90.2125 67.4325 90.3256 67.5884 90.4721C67.7443 90.6187 67.8686 90.7956 67.9535 90.992C68.0384 91.1884 68.0822 91.4002 68.0822 91.6141C68.0822 91.8281 68.0384 92.0398 67.9535 92.2363C67.8686 92.4327 67.7443 92.6096 67.5884 92.7562C67.4325 92.9027 67.2482 93.0158 67.047 93.0885C66.8457 93.1611 66.6317 93.1918 66.4181 93.1786H66.4241Z" fill="#E0E0E0"/>
<path d="M37.4466 75.3046H65.1725C65.6159 75.3047 66.0534 75.203 66.4513 75.0073C66.8492 74.8116 67.1969 74.5272 67.4675 74.1759C67.7381 73.8247 67.9245 73.416 68.0123 72.9814C68.1 72.5467 68.0868 72.0977 67.9737 71.669L65.5599 62.58C65.397 61.9625 65.0346 61.4162 64.5291 61.0261C64.0235 60.6359 63.4033 60.4237 62.7647 60.4225H39.8544C39.2151 60.4234 38.5939 60.6353 38.0874 61.0255C37.5809 61.4156 37.2173 61.9621 37.0532 62.58L34.6692 71.6571C34.5532 72.0847 34.537 72.5333 34.622 72.9682C34.7069 73.4031 34.8907 73.8126 35.1592 74.1652C35.4276 74.5177 35.7735 74.8038 36.1701 75.0014C36.5667 75.199 37.0035 75.3027 37.4466 75.3046Z" fill="#F5F5F5"/>
<path d="M244.527 104.079C247.832 104.079 251.002 102.766 253.339 100.429C255.676 98.0922 256.989 94.9223 256.989 91.6171C256.989 88.3119 255.676 85.142 253.339 82.8049C251.002 80.4678 247.832 79.1548 244.527 79.1548H242.995V104.079H244.527Z" fill="#E0E0E0"/>
<path d="M242.995 104.079C249.878 104.079 255.457 98.4999 255.457 91.6171C255.457 84.7343 249.878 79.1548 242.995 79.1548C236.112 79.1548 230.533 84.7343 230.533 91.6171C230.533 98.4999 236.112 104.079 242.995 104.079Z" fill="#F5F5F5"/>
<path d="M242.423 93.1786C237.997 93.1786 233.753 91.4205 230.623 88.2908C227.493 85.1612 225.735 80.9166 225.735 76.4906V66.5315C225.735 66.1158 225.9 65.7171 226.194 65.4231C226.488 65.1291 226.887 64.964 227.303 64.964C227.718 64.964 228.117 65.1291 228.411 65.4231C228.705 65.7171 228.87 66.1158 228.87 66.5315V76.4966C228.873 80.0891 230.301 83.5336 232.841 86.0745C235.381 88.6153 238.825 90.0449 242.417 90.0496C242.631 90.0365 242.845 90.0671 243.046 90.1398C243.247 90.2125 243.432 90.3256 243.587 90.4721C243.743 90.6187 243.868 90.7956 243.953 90.992C244.037 91.1884 244.081 91.4002 244.081 91.6141C244.081 91.8281 244.037 92.0398 243.953 92.2363C243.868 92.4327 243.743 92.6096 243.587 92.7562C243.432 92.9027 243.247 93.0158 243.046 93.0885C242.845 93.1611 242.631 93.1918 242.417 93.1786H242.423Z" fill="#E0E0E0"/>
<path d="M213.446 75.3046H241.172C241.615 75.3047 242.052 75.203 242.45 75.0073C242.848 74.8116 243.196 74.5272 243.467 74.1759C243.737 73.8247 243.924 73.416 244.011 72.9814C244.099 72.5467 244.086 72.0977 243.973 71.669L241.589 62.5919C241.426 61.9745 241.063 61.4282 240.558 61.038C240.052 60.6478 239.432 60.4356 238.793 60.4344H215.853C215.214 60.4353 214.593 60.6473 214.086 61.0374C213.58 61.4275 213.216 61.974 213.052 62.5919L210.668 71.669C210.554 72.0959 210.54 72.5432 210.626 72.9765C210.712 73.4099 210.896 73.8177 211.164 74.1688C211.432 74.5199 211.777 74.8048 212.173 75.0017C212.568 75.1986 213.004 75.3022 213.446 75.3046Z" fill="#F5F5F5"/>
<path d="M79.8521 188.253H88.9172V153.13H79.8521V188.253Z" fill="#E6E6E6"/>
<path d="M55.2791 188.247H85.3592L89.9007 147.14H59.8206L55.2791 188.247Z" fill="#F0F0F0"/>
<path d="M52.0188 188.247H83.0942L87.6358 147.14H56.5663L52.0188 188.247Z" fill="#F5F5F5"/>
<path d="M80.8474 185.01L84.6737 150.383H58.8073L54.981 185.01H80.8474Z" fill="white"/>
<path d="M75.5073 176.613L75.6921 175.224C76.6516 166.534 71.228 158.792 64.1833 158.792L64.0224 160.205C63.0628 168.889 68.4864 176.631 75.5371 176.631L75.5073 176.613Z" fill="#F5F5F5"/>
<path d="M35.2177 227.91H61.9424L61.9424 188.247H35.2177V227.91Z" fill="#E6E6E6"/>
<path d="M37.8996 227.91H35.2117V220.264H40.7187L37.8996 227.91Z" fill="#F0F0F0"/>
<path d="M110.117 227.91H136.842V188.247H110.117V227.91Z" fill="#E6E6E6"/>
<path d="M35.2117 223.22H112.459V188.253H35.2117V223.22Z" fill="#F0F0F0"/>
<path d="M109.771 227.91H112.459V220.264H106.952L109.771 227.91Z" fill="#F0F0F0"/>
<path d="M37.2977 204.547H110.373V190.434H37.2977V204.547Z" fill="#E6E6E6"/>
<path d="M68.9631 199.66H78.7077C80.8029 199.661 82.8761 199.234 84.8007 198.406C86.7253 197.578 88.4606 196.366 89.9006 194.844H57.7703C59.2109 196.365 60.9464 197.577 62.8708 198.405C64.7952 199.233 66.8682 199.66 68.9631 199.66Z" fill="#F0F0F0"/>
<path d="M37.2977 220.937H110.373V206.824H37.2977V220.937Z" fill="#E6E6E6"/>
<path d="M68.9631 216.026H78.7077C80.8029 216.027 82.8761 215.6 84.8007 214.772C86.7253 213.944 88.4606 212.732 89.9006 211.21H57.7703C59.2109 212.731 60.9464 213.943 62.8708 214.771C64.7952 215.599 66.8682 216.026 68.9631 216.026Z" fill="#F0F0F0"/>
<path d="M107.566 186.631H108.257C108.257 185.207 108.257 181.601 108.329 173.335C108.454 158.345 108.692 157.433 108.692 157.433L107.048 164.353C106.005 172.012 107.351 179.712 107.566 186.631Z" fill="#E6E6E6"/>
<path d="M106.201 163.304C103.817 160.485 98.781 159.662 93.6077 158.959C91.5754 158.685 98.9419 163.328 102.548 166.624C105.349 169.187 107.137 169.896 107.912 172.447C108.305 169.264 108.24 165.754 106.201 163.304Z" fill="#E6E6E6"/>
<path d="M109.342 168.358C111.726 165.539 116.762 164.722 121.936 164.019C123.968 163.745 116.572 168.388 112.996 171.684C110.194 174.247 108.406 174.956 107.632 177.507C107.238 174.324 107.28 170.79 109.342 168.358Z" fill="#E6E6E6"/>
<path d="M108.329 156.748C110.117 153.375 114.563 150.192 119.576 149C121.542 148.529 115.016 155.222 112.537 159.543C110.612 162.893 108.061 166.838 107.661 169.675C107.065 164.085 106.553 160.139 108.329 156.748Z" fill="#E6E6E6"/>
<path d="M108.114 188.247C106.005 188.247 104.258 187.192 104.133 185.833L103.781 183.52H112.453L112.096 185.833C111.976 187.192 110.26 188.247 108.114 188.247Z" fill="#F0F0F0"/>
<path d="M113.014 184.408H103.221L102.941 181.828H113.294L113.014 184.408Z" fill="#F0F0F0"/>
<path d="M101.046 135.125H196.531V48.0316L101.046 48.0316L101.046 135.125Z" fill="#E6E6E6"/>
<path d="M98.9002 135.125H195.595V48.0316L98.9002 48.0316L98.9002 135.125Z" fill="#F5F5F5"/>
<path d="M191.733 131.227V51.9354L102.75 51.9354V131.227H191.733Z" fill="#FAFAFA"/>
<path d="M180.82 131.227L145.799 51.9354H133.903L168.924 131.227H180.82Z" fill="white"/>
<path d="M165.551 131.227L130.53 51.9354H122.341L157.362 131.227H165.551Z" fill="white"/>
<path d="M135.793 131.221V51.9295H131.192V131.221H135.793Z" fill="#E6E6E6"/>
<path d="M166.379 131.221V51.9295H161.778V131.221H166.379Z" fill="#E6E6E6"/>
<path d="M134.964 133.701V49.0329H129.147V133.701H134.964Z" fill="#F5F5F5"/>
<path d="M165.551 133.701V49.0329H159.734V133.701H165.551Z" fill="#F5F5F5"/>
<path d="M103.167 131.227V51.9354H102.756V131.227H103.167Z" fill="#E6E6E6"/>
<path d="M97.2792 43.0133H200.721C200.853 43.0149 200.98 43.0681 201.073 43.1617C201.167 43.2552 201.22 43.3817 201.222 43.514C201.22 43.6457 201.167 43.7715 201.073 43.8641C200.979 43.9567 200.853 44.0086 200.721 44.0086H97.2792C97.1475 44.0086 97.021 43.9567 96.9273 43.8641C96.8336 43.7715 96.7801 43.6457 96.7786 43.514C96.7801 43.3817 96.8334 43.2552 96.9269 43.1617C97.0205 43.0681 97.1469 43.0149 97.2792 43.0133Z" fill="#E6E6E6"/>
<path d="M196.531 46.2973C196.708 46.2957 196.878 46.2241 197.003 46.0979C197.128 45.9718 197.198 45.8014 197.198 45.6238V44.1815C197.199 44.0933 197.183 44.0059 197.149 43.9242C197.116 43.8425 197.067 43.7682 197.005 43.7056C196.943 43.643 196.869 43.5933 196.788 43.5594C196.706 43.5255 196.619 43.508 196.531 43.508C196.353 43.508 196.183 43.5781 196.057 43.7031C195.931 43.8282 195.859 43.9979 195.857 44.1755V45.6178C195.857 45.797 195.928 45.9689 196.054 46.0962C196.18 46.2234 196.352 46.2957 196.531 46.2973Z" fill="#E6E6E6"/>
<path d="M104.777 46.2973C104.955 46.2957 105.125 46.2243 105.251 46.0983C105.377 45.9723 105.449 45.8019 105.45 45.6238V44.1815C105.45 44.0029 105.379 43.8316 105.253 43.7053C105.127 43.579 104.955 43.508 104.777 43.508C104.6 43.508 104.43 43.5783 104.305 43.7035C104.179 43.8287 104.109 43.9985 104.109 44.1755V45.6178C104.108 45.7063 104.125 45.794 104.158 45.876C104.191 45.958 104.24 46.0327 104.302 46.0958C104.364 46.1589 104.438 46.2092 104.519 46.2437C104.601 46.2783 104.688 46.2965 104.777 46.2973Z" fill="#E6E6E6"/>
<path opacity="0.6" d="M97.434 111.714L194.063 111.714V43.508L97.434 43.508L97.434 111.714Z" fill="#E0E0E0"/>
<path d="M202.813 154.942H186.149C184.378 154.942 182.942 156.378 182.942 158.149V165.861C182.942 167.632 184.378 169.067 186.149 169.067H202.813C204.584 169.067 206.019 167.632 206.019 165.861V158.149C206.019 156.378 204.584 154.942 202.813 154.942Z" fill="#FAFAFA"/>
<path d="M204.94 152.332H184.021C183.425 152.332 182.942 152.815 182.942 153.41V154.281C182.942 154.876 183.425 155.359 184.021 155.359H204.94C205.536 155.359 206.019 154.876 206.019 154.281V153.41C206.019 152.815 205.536 152.332 204.94 152.332Z" fill="#E6E6E6"/>
<path d="M183.282 184.76C183.282 184.76 183.586 194.695 195.16 194.695C206.735 194.695 207.039 184.76 207.039 184.76H183.282Z" fill="#F0F0F0"/>
<path d="M209.673 184.76C209.673 184.76 209.977 194.695 221.551 194.695C233.125 194.695 233.429 184.76 233.429 184.76H209.673Z" fill="#F0F0F0"/>
<path d="M227.696 148.547H204.809C202.374 148.547 200.399 150.522 200.399 152.957V164.663C200.399 167.099 202.374 169.073 204.809 169.073H227.696C230.132 169.073 232.106 167.099 232.106 164.663V152.957C232.106 150.522 230.132 148.547 227.696 148.547Z" fill="#F0F0F0"/>
<path d="M230.628 144.959H201.877C201.061 144.959 200.399 145.621 200.399 146.437V147.641C200.399 148.457 201.061 149.119 201.877 149.119H230.628C231.444 149.119 232.106 148.457 232.106 147.641V146.437C232.106 145.621 231.444 144.959 230.628 144.959Z" fill="#F5F5F5"/>
<path d="M174.562 227.91H177.566V178.657H174.562V227.91Z" fill="#E6E6E6"/>
<path d="M261.298 169.067H245.033V178.651H261.298V169.067Z" fill="#E6E6E6"/>
<path d="M164.162 178.657H245.028V169.073H164.162V178.657Z" fill="#F5F5F5"/>
<path d="M261.298 194.666H245.033V204.249H261.298V194.666Z" fill="#E6E6E6"/>
<path d="M164.162 204.249H245.028V194.666H164.162V204.249Z" fill="#F5F5F5"/>
<path d="M255.428 227.91H258.432V178.657H255.428V227.91Z" fill="#E6E6E6"/>
<path d="M242.03 227.91H245.033V178.657H242.03V227.91Z" fill="#F5F5F5"/>
<path d="M164.162 227.91H167.166V178.657H164.162V227.91Z" fill="#F5F5F5"/>
<path d="M149 254.826C212.821 254.826 264.559 251.805 264.559 248.079C264.559 244.353 212.821 241.332 149 241.332C85.1789 241.332 33.4417 244.353 33.4417 248.079C33.4417 251.805 85.1789 254.826 149 254.826Z" fill="#F5F5F5"/>
<path d="M155.204 217.838H79.1727C77.9501 217.821 76.7792 217.342 75.8949 216.497C75.0106 215.653 74.4783 214.505 74.4047 213.285L67.5865 81.2408C67.5487 80.6534 67.6326 80.0646 67.833 79.5112C68.0334 78.9578 68.346 78.4518 68.7511 78.0249C69.1562 77.5979 69.6451 77.2593 70.1873 77.0301C70.7294 76.801 71.313 76.6863 71.9015 76.6933H147.933C149.155 76.7091 150.326 77.1868 151.211 78.0303C152.095 78.8738 152.628 80.0208 152.701 81.2408L159.508 213.285C159.545 213.871 159.462 214.459 159.262 215.012C159.062 215.565 158.751 216.071 158.347 216.498C157.944 216.925 157.456 217.265 156.915 217.495C156.375 217.726 155.792 217.842 155.204 217.838Z" fill="#F09FBF"/>
<path opacity="0.8" d="M155.204 217.838H79.1727C77.9501 217.821 76.7792 217.342 75.8949 216.497C75.0106 215.653 74.4783 214.505 74.4047 213.285L67.5865 81.2408C67.5487 80.6534 67.6326 80.0646 67.833 79.5112C68.0334 78.9578 68.346 78.4518 68.7511 78.0249C69.1562 77.5979 69.6451 77.2593 70.1873 77.0301C70.7294 76.801 71.313 76.6863 71.9015 76.6933H147.933C149.155 76.7091 150.326 77.1868 151.211 78.0303C152.095 78.8738 152.628 80.0208 152.701 81.2408L159.508 213.285C159.545 213.871 159.462 214.459 159.262 215.012C159.062 215.565 158.751 216.071 158.347 216.498C157.944 216.925 157.456 217.265 156.915 217.495C156.375 217.726 155.792 217.842 155.204 217.838Z" fill="white"/>
<path d="M140.43 72.3902H132.02V72.9862H140.43V72.3902Z" fill="#F09FBF"/>
<path d="M129.105 72.3902H126.024V72.9862H129.105V72.3902Z" fill="#F09FBF"/>
<path d="M158.476 209.458H85.7644C84.5935 209.447 83.4704 208.992 82.6211 208.186C81.7718 207.38 81.2595 206.282 81.1872 205.113L74.6788 78.821C74.6427 78.2589 74.723 77.6954 74.9149 77.1658C75.1067 76.6362 75.406 76.152 75.7938 75.7435C76.1815 75.335 76.6496 75.0111 77.1685 74.7919C77.6873 74.5728 78.2459 74.4633 78.8091 74.4702H151.521C152.692 74.4831 153.814 74.9391 154.663 75.7464C155.511 76.5536 156.022 77.6522 156.092 78.821L162.601 205.113C162.637 205.675 162.557 206.237 162.365 206.766C162.174 207.295 161.875 207.779 161.488 208.187C161.1 208.595 160.633 208.918 160.115 209.137C159.597 209.356 159.039 209.465 158.476 209.458Z" fill="#F09FBF"/>
<path d="M158.476 206.556H85.7644C85.338 206.541 84.9318 206.37 84.6231 206.076C84.3143 205.781 84.1245 205.384 84.0896 204.958L77.5754 78.672C77.5606 78.504 77.5817 78.3348 77.6372 78.1756C77.6926 78.0163 77.7813 77.8707 77.8972 77.7482C78.0135 77.626 78.1543 77.5299 78.3105 77.4662C78.4667 77.4025 78.6346 77.3727 78.8031 77.3787H151.515C151.941 77.3948 152.345 77.5662 152.653 77.8605C152.96 78.1549 153.149 78.5517 153.184 78.976L159.728 205.262C159.742 205.43 159.721 205.598 159.666 205.757C159.61 205.916 159.522 206.061 159.407 206.183C159.291 206.305 159.152 206.401 158.996 206.466C158.841 206.53 158.674 206.561 158.506 206.556H158.476ZM78.8031 77.5277C78.655 77.5229 78.5074 77.549 78.3699 77.6044C78.2324 77.6599 78.1079 77.7433 78.0045 77.8495C77.905 77.9596 77.8289 78.0887 77.7807 78.2291C77.7326 78.3694 77.7134 78.5181 77.7244 78.666L84.2327 204.952C84.2659 205.339 84.4393 205.701 84.7203 205.968C85.0013 206.236 85.3705 206.392 85.7584 206.407H158.47C158.618 206.413 158.765 206.387 158.902 206.331C159.038 206.276 159.162 206.192 159.263 206.085C159.365 205.976 159.443 205.848 159.491 205.707C159.539 205.566 159.557 205.417 159.543 205.268L153.041 78.9819C153.009 78.5957 152.837 78.2344 152.557 77.9664C152.277 77.6985 151.908 77.5424 151.521 77.5277H78.8031Z" fill="white"/>
<path opacity="0.3" d="M133.043 123.405C141.313 114.919 140.775 100.981 131.84 92.2741C122.906 83.5674 108.959 83.389 100.689 91.8756C92.4184 100.362 92.957 114.3 101.891 123.007C110.826 131.713 124.773 131.892 133.043 123.405Z" fill="white"/>
<path d="M134.696 107.644C134.863 110.572 134.274 113.495 132.985 116.131C131.591 118.958 129.426 121.333 126.74 122.983C124.055 124.633 120.957 125.491 117.805 125.458C114.539 125.429 111.336 124.554 108.507 122.92C105.679 121.285 103.322 118.946 101.666 116.131C100.122 113.556 99.2338 110.642 99.079 107.644C98.9321 105.344 99.2612 103.04 100.046 100.873C100.831 98.7073 102.054 96.7264 103.64 95.0548C105.225 93.3831 107.138 92.0568 109.26 91.1586C111.382 90.2605 113.666 89.8099 115.97 89.8351C120.764 89.8851 125.362 91.7501 128.837 95.0545C132.312 98.3589 134.405 102.857 134.696 107.644Z" fill="white"/>
<path d="M132.968 116.131C131.573 118.958 129.408 121.333 126.723 122.983C124.037 124.633 120.94 125.491 117.788 125.458C114.521 125.429 111.318 124.554 108.49 122.92C105.661 121.285 103.304 118.946 101.648 116.131C106.177 113.003 111.556 111.339 117.061 111.363C122.712 111.384 128.236 113.04 132.968 116.131Z" fill="#F09FBF"/>
<path d="M122.387 107.229C125.367 104.172 125.172 99.1494 121.951 96.0113C118.731 92.8732 113.705 92.8079 110.726 95.8655C107.746 98.923 107.941 103.946 111.161 107.084C114.382 110.222 119.408 110.287 122.387 107.229Z" fill="#F09FBF"/>
<path d="M148.052 160.324H91.1165C90.6206 160.319 90.1451 160.126 89.7856 159.784C89.4262 159.443 89.2097 158.977 89.1795 158.482L88.7504 150.138C88.7356 149.901 88.77 149.663 88.8513 149.44C88.9327 149.216 89.0593 149.012 89.2232 148.84C89.3871 148.667 89.5848 148.531 89.8039 148.438C90.0231 148.346 90.2589 148.3 90.4967 148.303H147.433C147.928 148.308 148.402 148.5 148.762 148.84C149.121 149.181 149.338 149.644 149.37 150.138L149.799 158.482C149.814 158.72 149.781 158.959 149.7 159.183C149.619 159.407 149.492 159.612 149.328 159.785C149.164 159.958 148.966 160.095 148.747 160.188C148.527 160.281 148.291 160.327 148.052 160.324Z" fill="white"/>
<path opacity="0.3" d="M130.619 143.696H106.839C106.341 143.692 105.863 143.499 105.502 143.156C105.142 142.813 104.925 142.345 104.896 141.848L104.807 140.06C104.791 139.822 104.825 139.584 104.906 139.36C104.987 139.135 105.113 138.93 105.277 138.757C105.441 138.584 105.639 138.447 105.859 138.354C106.078 138.262 106.315 138.215 106.553 138.218H130.327C130.823 138.223 131.299 138.416 131.658 138.758C132.018 139.1 132.234 139.565 132.264 140.06L132.36 141.848C132.374 142.085 132.34 142.323 132.259 142.547C132.179 142.771 132.053 142.975 131.89 143.149C131.726 143.322 131.53 143.46 131.311 143.554C131.093 143.648 130.857 143.696 130.619 143.696Z" fill="black"/>
<path opacity="0.3" d="M139.464 200.441H103.841C102.998 200.43 102.189 200.102 101.578 199.52C100.967 198.939 100.598 198.148 100.545 197.306L100.337 193.193C100.316 192.789 100.377 192.385 100.517 192.005C100.658 191.626 100.874 191.279 101.153 190.985C101.431 190.692 101.767 190.459 102.139 190.299C102.511 190.14 102.912 190.058 103.317 190.058H138.928C139.771 190.069 140.579 190.398 141.191 190.979C141.802 191.561 142.171 192.351 142.223 193.193L142.432 197.306C142.453 197.709 142.392 198.112 142.252 198.491C142.113 198.87 141.898 199.216 141.62 199.51C141.342 199.803 141.008 200.036 140.638 200.197C140.267 200.357 139.868 200.44 139.464 200.441Z" fill="black"/>
<path d="M149.095 180.505H92.1536C91.6581 180.498 91.1834 180.305 90.8242 179.963C90.4651 179.622 90.2481 179.157 90.2166 178.663L89.7875 170.319C89.7728 170.081 89.8071 169.843 89.8884 169.619C89.9697 169.396 90.0962 169.191 90.26 169.018C90.4238 168.845 90.6215 168.708 90.8406 168.615C91.0598 168.522 91.2957 168.475 91.5338 168.477H148.47C148.966 168.482 149.441 168.675 149.801 169.017C150.16 169.359 150.377 169.824 150.407 170.319L150.842 178.663C150.856 178.9 150.821 179.138 150.739 179.361C150.657 179.585 150.531 179.789 150.367 179.962C150.204 180.134 150.006 180.272 149.788 180.365C149.569 180.458 149.333 180.506 149.095 180.505Z" fill="white"/>
<path d="M98.34 154.31C98.3564 154.574 98.3183 154.838 98.2281 155.086C98.1379 155.334 97.9976 155.56 97.8158 155.752C97.634 155.943 97.4147 156.095 97.1716 156.197C96.9286 156.3 96.6669 156.352 96.403 156.349C95.8548 156.342 95.3294 156.128 94.9325 155.75C94.5355 155.372 94.2965 154.858 94.2634 154.31C94.2461 154.047 94.2834 153.783 94.3729 153.535C94.4624 153.288 94.6023 153.061 94.7836 152.869C94.9649 152.678 95.1838 152.526 95.4266 152.423C95.6694 152.32 95.9308 152.269 96.1944 152.272C96.7432 152.278 97.2693 152.492 97.6672 152.87C98.0652 153.248 98.3055 153.763 98.34 154.31Z" fill="#263238"/>
<path d="M104.616 154.31C104.633 154.573 104.596 154.837 104.506 155.085C104.417 155.333 104.277 155.56 104.096 155.751C103.915 155.943 103.696 156.095 103.453 156.197C103.21 156.3 102.949 156.352 102.685 156.349C102.136 156.344 101.61 156.13 101.213 155.752C100.816 155.373 100.577 154.858 100.545 154.31C100.528 154.047 100.565 153.783 100.655 153.535C100.744 153.288 100.884 153.061 101.066 152.869C101.247 152.678 101.466 152.526 101.709 152.423C101.951 152.32 102.213 152.269 102.476 152.272C103.025 152.277 103.551 152.491 103.948 152.869C104.346 153.247 104.584 153.763 104.616 154.31Z" fill="#263238"/>
<path d="M110.856 154.31C110.873 154.573 110.836 154.837 110.746 155.085C110.657 155.333 110.517 155.56 110.336 155.751C110.154 155.943 109.936 156.095 109.693 156.197C109.45 156.3 109.189 156.352 108.925 156.349C108.376 156.342 107.85 156.129 107.452 155.751C107.054 155.373 106.814 154.858 106.779 154.31C106.763 154.047 106.801 153.783 106.891 153.535C106.981 153.287 107.122 153.06 107.304 152.869C107.485 152.678 107.705 152.526 107.948 152.423C108.191 152.321 108.452 152.269 108.716 152.272C109.265 152.279 109.79 152.492 110.187 152.871C110.584 153.249 110.823 153.763 110.856 154.31Z" fill="#263238"/>
<path d="M117.144 154.31C117.16 154.573 117.122 154.837 117.032 155.084C116.943 155.332 116.803 155.558 116.622 155.75C116.44 155.941 116.222 156.093 115.98 156.196C115.737 156.299 115.476 156.351 115.213 156.349C114.664 156.342 114.138 156.129 113.74 155.751C113.342 155.373 113.102 154.858 113.067 154.31C113.051 154.048 113.089 153.784 113.179 153.536C113.268 153.289 113.408 153.062 113.589 152.871C113.771 152.68 113.989 152.528 114.231 152.425C114.474 152.322 114.735 152.27 114.998 152.272C115.547 152.278 116.073 152.492 116.471 152.87C116.869 153.248 117.109 153.763 117.144 154.31Z" fill="#263238"/>
<path d="M99.3951 174.479C99.4123 174.742 99.375 175.006 99.2855 175.254C99.196 175.502 99.0562 175.729 98.8749 175.92C98.6935 176.111 98.4746 176.263 98.2318 176.366C97.9891 176.469 97.7276 176.52 97.464 176.517C96.9152 176.511 96.3891 176.297 95.9912 175.919C95.5933 175.541 95.353 175.027 95.3184 174.479C95.302 174.216 95.3401 173.952 95.4303 173.704C95.5205 173.456 95.6609 173.229 95.8427 173.038C96.0245 172.846 96.2437 172.695 96.4868 172.592C96.7299 172.489 96.9915 172.438 97.2554 172.441C97.8036 172.447 98.329 172.661 98.726 173.039C99.1229 173.417 99.362 173.932 99.3951 174.479Z" fill="#263238"/>
<path d="M105.659 174.479C105.675 174.742 105.637 175.005 105.547 175.253C105.458 175.5 105.318 175.727 105.137 175.918C104.956 176.109 104.737 176.261 104.495 176.364C104.252 176.467 103.991 176.519 103.728 176.517C103.179 176.511 102.653 176.297 102.255 175.919C101.857 175.541 101.617 175.027 101.582 174.479C101.565 174.216 101.602 173.952 101.692 173.704C101.781 173.456 101.921 173.229 102.102 173.038C102.284 172.847 102.503 172.695 102.745 172.592C102.988 172.489 103.25 172.438 103.513 172.441C104.062 172.447 104.588 172.661 104.986 173.039C105.384 173.417 105.624 173.931 105.659 174.479Z" fill="#263238"/>
<path d="M111.923 174.479C111.939 174.742 111.901 175.006 111.811 175.254C111.721 175.502 111.58 175.729 111.399 175.92C111.217 176.112 110.997 176.263 110.754 176.366C110.511 176.469 110.25 176.52 109.986 176.517C109.437 176.512 108.911 176.299 108.514 175.92C108.116 175.542 107.878 175.027 107.846 174.479C107.829 174.216 107.866 173.952 107.956 173.704C108.045 173.456 108.185 173.229 108.366 173.038C108.548 172.847 108.767 172.695 109.009 172.592C109.252 172.489 109.514 172.438 109.777 172.441C110.326 172.447 110.852 172.661 111.25 173.039C111.648 173.417 111.888 173.931 111.923 174.479Z" fill="#263238"/>
<path d="M118.181 174.479C118.198 174.742 118.161 175.006 118.071 175.254C117.982 175.502 117.842 175.729 117.661 175.92C117.479 176.111 117.261 176.263 117.018 176.366C116.775 176.469 116.514 176.52 116.25 176.517C115.701 176.511 115.175 176.297 114.777 175.919C114.379 175.541 114.139 175.027 114.104 174.479C114.088 174.216 114.126 173.952 114.216 173.704C114.306 173.456 114.447 173.229 114.629 173.038C114.81 172.846 115.03 172.695 115.273 172.592C115.516 172.489 115.777 172.438 116.041 172.441C116.59 172.446 117.116 172.659 117.513 173.038C117.911 173.416 118.149 173.931 118.181 174.479Z" fill="#263238"/>
<path d="M124.445 174.479C124.462 174.742 124.425 175.006 124.335 175.254C124.246 175.502 124.106 175.729 123.925 175.92C123.743 176.111 123.524 176.263 123.282 176.366C123.039 176.469 122.777 176.52 122.514 176.517C121.965 176.511 121.439 176.297 121.041 175.919C120.643 175.541 120.403 175.027 120.368 174.479C120.352 174.216 120.39 173.953 120.48 173.705C120.569 173.458 120.709 173.231 120.89 173.04C121.072 172.849 121.29 172.697 121.533 172.594C121.775 172.491 122.036 172.439 122.299 172.441C122.848 172.447 123.374 172.661 123.772 173.039C124.17 173.417 124.41 173.931 124.445 174.479Z" fill="#263238"/>
<path d="M130.709 174.479C130.725 174.742 130.687 175.006 130.597 175.254C130.507 175.502 130.366 175.729 130.185 175.92C130.003 176.112 129.784 176.263 129.541 176.366C129.297 176.469 129.036 176.52 128.772 176.517C128.224 176.511 127.698 176.297 127.301 175.919C126.904 175.541 126.665 175.026 126.632 174.479C126.615 174.216 126.652 173.952 126.742 173.704C126.831 173.456 126.971 173.229 127.152 173.038C127.334 172.847 127.553 172.695 127.795 172.592C128.038 172.489 128.3 172.438 128.563 172.441C129.112 172.447 129.638 172.661 130.036 173.039C130.434 173.417 130.674 173.931 130.709 174.479Z" fill="#263238"/>
<path d="M198.468 105.266C198.617 105.492 198.694 105.611 198.79 105.772L199.058 106.213C199.231 106.511 199.386 106.809 199.535 107.101C199.833 107.697 200.131 108.293 200.369 108.889C200.869 110.073 201.299 111.285 201.657 112.519C202.378 114.956 202.853 117.46 203.075 119.993L203.117 120.464C203.122 120.559 203.122 120.654 203.117 120.75V121.065C203.127 121.48 203.103 121.895 203.045 122.305C202.931 123.066 202.731 123.812 202.449 124.528C201.926 125.807 201.232 127.01 200.387 128.104C198.811 130.123 196.94 131.893 194.838 133.355L193.193 131.43C194.69 129.739 196.016 127.905 197.151 125.953C197.662 125.067 198.062 124.122 198.343 123.14C198.457 122.723 198.523 122.295 198.539 121.864C198.558 121.68 198.558 121.494 198.539 121.31V121.185C198.545 121.129 198.545 121.073 198.539 121.018L198.468 120.601C198.085 118.379 197.543 116.188 196.847 114.045C196.501 112.978 196.078 111.947 195.655 110.939C195.446 110.433 195.208 109.938 194.969 109.461L194.6 108.758L194.415 108.43L194.26 108.168L198.468 105.266Z" fill="#803E3C"/>
<path d="M192.925 133.367L195.083 137.926L196.793 134.07C196.793 134.07 195.274 130.733 193.217 131.043L192.925 133.367Z" fill="#7F3E3B"/>
<path d="M196.626 138.153L198.343 135.34L196.793 134.07L195.083 137.926L196.626 138.153Z" fill="#7F3E3B"/>
<path d="M186.924 243.299C187.37 243.288 187.814 243.228 188.247 243.12C188.269 243.114 188.288 243.101 188.304 243.085C188.32 243.068 188.331 243.047 188.336 243.025C188.34 243.002 188.337 242.979 188.327 242.957C188.318 242.936 188.302 242.918 188.282 242.906C188.11 242.793 186.596 241.815 186.012 242.077C185.947 242.108 185.891 242.154 185.851 242.213C185.81 242.272 185.785 242.34 185.779 242.411C185.761 242.519 185.77 242.63 185.804 242.733C185.838 242.837 185.897 242.931 185.976 243.007C186.246 243.216 186.583 243.319 186.924 243.299ZM187.907 242.947C187.043 243.126 186.387 243.096 186.119 242.864C186.064 242.81 186.024 242.742 186.002 242.668C185.98 242.595 185.977 242.516 185.994 242.441C185.994 242.34 186.053 242.31 186.095 242.292C186.417 242.149 187.293 242.572 187.907 242.947Z" fill="#F09FBF"/>
<path d="M188.217 243.12H188.277C188.294 243.109 188.309 243.093 188.32 243.074C188.33 243.055 188.336 243.034 188.336 243.013C188.336 242.953 188.336 241.517 187.788 241.034C187.721 240.974 187.641 240.929 187.555 240.902C187.468 240.875 187.377 240.867 187.287 240.879C187.193 240.88 187.102 240.913 187.03 240.973C186.957 241.032 186.907 241.115 186.888 241.207C186.775 241.773 187.681 242.846 188.157 243.12H188.217ZM187.365 241.1C187.413 241.099 187.461 241.107 187.506 241.124C187.551 241.142 187.592 241.168 187.627 241.201C187.941 241.665 188.104 242.215 188.092 242.775C187.615 242.393 187.049 241.583 187.12 241.243C187.12 241.189 187.162 241.118 187.311 241.1H187.365Z" fill="#F09FBF"/>
<path d="M181.297 240.867C181.311 240.85 181.32 240.829 181.324 240.807C181.327 240.785 181.324 240.762 181.315 240.741C181.307 240.721 181.293 240.703 181.275 240.689C181.257 240.676 181.236 240.667 181.214 240.665C180.969 240.665 178.83 240.563 178.341 241.088V241.124C178.301 241.175 178.275 241.237 178.265 241.301C178.256 241.366 178.263 241.432 178.287 241.493C178.319 241.596 178.376 241.689 178.451 241.764C178.527 241.84 178.62 241.896 178.723 241.928C179.414 242.143 180.636 241.362 181.303 240.879L181.297 240.867ZM178.52 241.243C178.788 240.957 179.968 240.879 180.85 240.891C179.926 241.523 179.158 241.821 178.77 241.702C178.703 241.681 178.641 241.645 178.591 241.595C178.541 241.545 178.505 241.483 178.484 241.416C178.472 241.393 178.466 241.367 178.466 241.341C178.466 241.315 178.472 241.29 178.484 241.267L178.52 241.243Z" fill="#F09FBF"/>
<path d="M181.297 240.867C181.306 240.849 181.311 240.828 181.311 240.808C181.311 240.787 181.306 240.767 181.297 240.748C181.267 240.701 180.6 239.556 179.813 239.318C179.7 239.285 179.582 239.275 179.465 239.289C179.348 239.304 179.235 239.342 179.134 239.401C178.848 239.568 178.83 239.765 178.866 239.89C179.021 240.444 180.54 240.933 181.196 240.927C181.217 240.927 181.237 240.921 181.254 240.911C181.272 240.9 181.287 240.885 181.297 240.867ZM179.158 239.675C179.191 239.642 179.229 239.614 179.271 239.592C179.344 239.545 179.427 239.515 179.514 239.504C179.6 239.492 179.688 239.5 179.772 239.526C180.29 239.664 180.773 240.331 180.993 240.659C180.284 240.581 179.205 240.146 179.116 239.813C179.108 239.787 179.108 239.76 179.116 239.735C179.123 239.709 179.138 239.687 179.158 239.669V239.675Z" fill="#F09FBF"/>
<path d="M187.859 87.8087C187.263 90.7887 185.976 97.2314 188.044 99.2102C188.044 99.2102 187.233 102.19 181.732 102.19C175.677 102.19 178.842 99.2102 178.842 99.2102C182.144 98.4234 182.06 95.9679 181.482 93.6674L187.859 87.8087Z" fill="#7F3E3B"/>
<path d="M177.775 80.8236C177.808 80.829 177.843 80.829 177.876 80.8236C177.905 80.8096 177.93 80.7902 177.951 80.7664C177.971 80.7427 177.987 80.715 177.997 80.6851C178.007 80.6551 178.011 80.6235 178.009 80.592C178.006 80.5606 177.998 80.5299 177.984 80.5017C177.823 80.1618 177.584 79.8652 177.285 79.637C176.986 79.4089 176.637 79.2557 176.267 79.1905C176.205 79.1853 176.143 79.204 176.095 79.2428C176.046 79.2816 176.014 79.3375 176.005 79.3991C175.998 79.4615 176.016 79.524 176.055 79.5731C176.094 79.6222 176.151 79.6539 176.213 79.6614C176.506 79.7175 176.78 79.8424 177.014 80.0259C177.249 80.2094 177.436 80.446 177.56 80.7163C177.583 80.7515 177.615 80.78 177.653 80.7989C177.691 80.8177 177.733 80.8262 177.775 80.8236Z" fill="#263238"/>
<path d="M175.969 83.44C175.5 84.31 174.914 85.1121 174.229 85.824C174.414 85.9938 174.635 86.1213 174.875 86.1974C175.114 86.2736 175.368 86.2967 175.617 86.265L175.969 83.44Z" fill="#630F0F"/>
<path d="M176.416 82.7665C176.368 83.1658 176.112 83.4638 175.856 83.434C175.6 83.4042 175.421 83.0526 175.468 82.6533C175.516 82.254 175.772 81.956 176.064 81.9858C176.356 82.0156 176.458 82.3672 176.416 82.7665Z" fill="#263238"/>
<path d="M176.142 82.0215L175.224 81.652C175.224 81.652 175.612 82.4387 176.142 82.0215Z" fill="#263238"/>
<path d="M186.56 239.735L181.697 240.867L178.74 229.686L183.604 228.554L186.56 239.735Z" fill="#7F3E3B"/>
<path d="M194.022 243.001H189.033L189.421 231.445H194.415L194.022 243.001Z" fill="#7F3E3B"/>
<path d="M188.634 242.423H194.242C194.34 242.422 194.434 242.457 194.507 242.52C194.581 242.584 194.629 242.672 194.642 242.769L195.279 247.203C195.292 247.315 195.281 247.429 195.246 247.536C195.212 247.644 195.155 247.742 195.08 247.826C195.004 247.91 194.912 247.977 194.809 248.023C194.705 248.068 194.594 248.092 194.481 248.091C192.526 248.061 191.584 247.942 189.117 247.942C187.597 247.942 185.38 248.103 183.288 248.103C181.196 248.103 181.077 246.029 181.953 245.844C185.863 244.998 186.483 243.841 187.8 242.733C188.032 242.534 188.328 242.424 188.634 242.423Z" fill="#263238"/>
<path d="M181.268 240.122L186.363 237.78C186.45 237.739 186.549 237.731 186.641 237.757C186.733 237.783 186.812 237.842 186.864 237.923L189.302 241.69C189.359 241.787 189.395 241.895 189.407 242.006C189.42 242.118 189.409 242.231 189.375 242.338C189.342 242.446 189.286 242.545 189.212 242.629C189.137 242.713 189.046 242.781 188.944 242.828C187.156 243.615 186.25 243.907 184.009 244.938C182.632 245.57 179.837 247.024 177.942 247.918C176.047 248.812 175.069 246.959 175.784 246.422C178.985 244.038 179.903 242.328 180.636 240.772C180.76 240.485 180.985 240.254 181.268 240.122Z" fill="#263238"/>
<path opacity="0.2" d="M178.74 229.686L180.326 235.682L185.13 234.317L183.61 228.554L178.74 229.686Z" fill="black"/>
<path opacity="0.2" d="M194.415 231.445H189.421L189.224 237.405H194.219L194.415 231.445Z" fill="black"/>
<path d="M196.68 100.343C198.754 100.801 200.971 108.257 200.971 108.257L195.107 114.498C195.107 114.498 190.237 107.489 191.233 104.914C192.24 102.226 194.207 99.8062 196.68 100.343Z" fill="#263238"/>
<path opacity="0.4" d="M193.366 105.093C192.317 104.133 191.608 104.419 191.125 105.182C190.649 107.399 193.474 112.042 194.612 113.8C195.137 111.702 195.739 107.28 193.366 105.093Z" fill="black"/>
<path d="M170.402 100.492C170.402 100.492 168.018 101.326 172.786 130.619H193.05C192.711 122.371 192.699 117.281 196.626 100.343C193.787 99.7567 190.909 99.3782 188.014 99.2102C184.951 98.9894 181.875 98.9894 178.812 99.2102C174.884 99.5737 170.402 100.492 170.402 100.492Z" fill="#263238"/>
<path opacity="0.4" d="M170.218 111.732C170.349 113.157 170.522 114.76 170.748 116.572C172.411 115.076 173.77 110.82 173.269 108.341C172.081 109.305 171.052 110.449 170.218 111.732Z" fill="black"/>
<path d="M172.387 107.28C171.294 110.032 170.062 112.727 168.698 115.356C167.349 118.079 165.753 120.673 163.93 123.104L163.549 123.575L163.358 123.807C163.292 123.885 163.239 123.956 163.137 124.063C162.779 124.455 162.379 124.806 161.945 125.112C161.179 125.643 160.34 126.06 159.454 126.352C157.909 126.845 156.306 127.13 154.686 127.198C151.652 127.319 148.615 127.049 145.651 126.394L145.978 123.891C147.349 123.891 148.786 123.891 150.15 123.777C151.521 123.71 152.887 123.559 154.239 123.324C155.495 123.128 156.723 122.784 157.898 122.299C158.373 122.096 158.816 121.828 159.216 121.501C159.368 121.373 159.506 121.229 159.627 121.071C159.627 121.071 159.698 120.976 159.746 120.911L159.883 120.714L160.163 120.32C161.659 118.01 162.991 115.599 164.15 113.103C165.342 110.57 166.534 107.942 167.625 105.355L172.387 107.28Z" fill="#803E3C"/>
<path d="M170.402 100.492C167.917 101.088 164.865 107.906 164.865 107.906L170.015 115.475C170.015 115.475 176.875 106.839 176.058 104.205C175.224 101.457 173.436 99.7525 170.402 100.492Z" fill="#263238"/>
<path d="M147.409 124.272L143.111 122.287L142.682 126.561C142.682 126.561 146.258 127.616 148.046 126.561L147.409 124.272Z" fill="#7F3E3B"/>
<path d="M140.543 121.858L140.132 125.112L142.682 126.561L143.112 122.287L140.543 121.858Z" fill="#7F3E3B"/>
<path d="M190.017 83.0586C189.105 87.9279 188.825 90.0139 186.035 92.225C181.863 95.5507 176.052 93.3694 175.492 88.3272C174.98 83.7857 176.553 76.586 181.601 75.2152C182.713 74.9084 183.885 74.8916 185.006 75.1664C186.126 75.4412 187.157 75.9984 188.001 76.7849C188.845 77.5713 189.473 78.5609 189.826 79.6592C190.179 80.7574 190.245 81.9277 190.017 83.0586Z" fill="#7F3E3B"/>
<path d="M179.319 84.0837C179.039 86.569 178.931 93.0237 184.391 93.2263C191.072 93.4707 193.074 87.761 192.478 85.4783C195.959 82.6473 196.46 77.778 192.55 74.053C188.64 70.328 180.034 72.408 177.65 76.0377C174.628 80.5375 179.319 84.0837 179.319 84.0837Z" fill="#263238"/>
<path d="M186.012 75.5013C185.69 72.8789 185.94 71.073 188.396 71.073C190.851 71.073 194.201 71.961 195.428 74.4702C196.656 76.9794 196.758 80.907 193.331 80.5077C189.904 80.1084 186.399 78.6362 186.012 75.5013Z" fill="#F09FBF"/>
<path d="M189.814 74.8695C189.218 71.7465 192.013 62.9495 198.802 62.3535C201.949 62.0853 203.403 65.4706 201.782 66.0308C204.762 65.9951 206.669 69.9346 203.892 70.5247C206.085 71.9312 205.543 74.8159 202.414 76.2344C200.083 77.3072 190.619 79.1965 189.814 74.8695Z" fill="#263238"/>
<path d="M197.068 78.225C194.88 78.225 192.598 77.9032 191.179 76.9555C190.782 76.7164 190.449 76.3863 190.205 75.9924C189.961 75.5986 189.815 75.1524 189.778 74.6907C189.777 74.6515 189.79 74.6131 189.815 74.5833C189.841 74.5534 189.877 74.5343 189.916 74.5298C189.935 74.5273 189.955 74.529 189.974 74.5346C189.993 74.5403 190.011 74.5499 190.026 74.5628C190.041 74.5757 190.054 74.5916 190.062 74.6096C190.071 74.6275 190.076 74.647 190.076 74.6669C190.112 75.0835 190.246 75.4857 190.467 75.8409C190.687 76.1961 190.988 76.4943 191.346 76.7112C194.046 78.4992 200.286 77.9032 202.229 77.3072C203.91 76.7589 205.048 75.692 205.274 74.4642C205.345 74.0137 205.289 73.5524 205.114 73.1316C204.938 72.7107 204.649 72.3468 204.279 72.0802C204.265 72.0669 204.254 72.0507 204.246 72.0328C204.238 72.0148 204.234 71.9955 204.234 71.9759C204.234 71.9564 204.238 71.9371 204.246 71.9191C204.254 71.9012 204.265 71.885 204.279 71.8716C204.307 71.8443 204.344 71.8291 204.383 71.8291C204.422 71.8291 204.46 71.8443 204.488 71.8716C204.904 72.1752 205.227 72.5884 205.422 73.0652C205.617 73.542 205.675 74.0635 205.59 74.5715C205.346 75.9125 204.136 77.0568 202.348 77.6409C200.623 78.0758 198.846 78.2723 197.068 78.225Z" fill="#263238"/>
<path d="M177.799 83.44C177.244 84.2185 177.015 85.1831 177.161 86.128C177.358 87.3796 178.574 87.463 179.456 86.6644C180.338 85.8657 181.107 84.4234 180.457 83.3864C180.313 83.1623 180.113 82.979 179.878 82.8538C179.643 82.7286 179.379 82.6657 179.113 82.6711C178.846 82.6764 178.586 82.7499 178.356 82.8845C178.126 83.0191 177.934 83.2103 177.799 83.44Z" fill="#7F3E3B"/>
<path d="M178.138 130.619C178.138 130.619 181.035 164.883 184.045 184.194C186.47 199.791 188.39 236.248 188.39 236.248H195.196C195.196 236.248 197.616 200.882 196.388 185.457C193.271 146.419 200.226 143.237 193.068 130.625L178.138 130.619Z" fill="#F09FBF"/>
<path opacity="0.4" d="M186.709 143.57C184.012 146.402 181.835 149.686 180.278 153.273C181.071 160.974 182.012 169.52 183.014 177.006C187.122 166.369 188.396 154.848 186.709 143.57Z" fill="black"/>
<path d="M173.377 130.405C173.377 130.405 167.089 167.828 166.099 184.694C168.567 200.292 178.663 233.262 178.663 233.262L184.855 231.016C184.855 231.016 181.428 195.065 177.703 185.225C186.089 156.992 192.252 149.852 190.458 130.619C186.161 130.619 173.377 130.405 173.377 130.405Z" fill="#F09FBF"/>
<path d="M177.835 234.907L186.203 232.637L185.726 229.299L176.768 231.725L177.835 234.907Z" fill="#263238"/>
<path d="M187.454 236.385H196.126L196.579 233.346L187.406 233.036L187.454 236.385Z" fill="#263238"/>
<path d="M193.366 129.427L194.278 131.245C194.35 131.388 194.183 131.531 193.951 131.531H172.685C172.506 131.531 172.351 131.442 172.34 131.323L172.155 129.535C172.155 129.409 172.304 129.302 172.5 129.302H193.033C193.094 129.294 193.157 129.301 193.215 129.323C193.274 129.344 193.326 129.38 193.366 129.427Z" fill="#F09FBF"/>
<path opacity="0.5" d="M193.366 129.427L194.278 131.245C194.35 131.388 194.183 131.531 193.951 131.531H172.685C172.506 131.531 172.351 131.442 172.34 131.323L172.155 129.535C172.155 129.409 172.304 129.302 172.5 129.302H193.033C193.094 129.294 193.157 129.301 193.215 129.323C193.274 129.344 193.326 129.38 193.366 129.427Z" fill="black"/>
<path d="M190.607 131.716H191.155C191.268 131.716 191.352 131.656 191.346 131.591L191.084 129.207C191.084 129.135 190.982 129.082 190.875 129.082H190.321C190.214 129.082 190.13 129.135 190.136 129.207L190.392 131.591C190.404 131.668 190.5 131.716 190.607 131.716Z" fill="#F09FBF"/>
<path d="M183.228 114.36C183.162 114.359 183.099 114.338 183.046 114.298C182.994 114.258 182.955 114.203 182.936 114.14C180.993 106.952 176.976 101.028 175.027 100.134C174.876 100.041 174.694 100.011 174.521 100.051C174.485 100.069 174.445 100.081 174.405 100.084C174.364 100.087 174.323 100.082 174.285 100.069C174.246 100.055 174.211 100.034 174.181 100.007C174.151 99.9797 174.127 99.9464 174.11 99.9093C174.093 99.8722 174.084 99.8321 174.084 99.7914C174.083 99.7507 174.091 99.7104 174.106 99.6728C174.122 99.6352 174.145 99.6012 174.174 99.5729C174.204 99.5446 174.238 99.5226 174.276 99.5082C174.439 99.4483 174.613 99.4248 174.786 99.4392C174.959 99.4536 175.127 99.5056 175.278 99.5916C177.34 100.569 181.416 106.41 183.455 113.759C184.915 113.759 187.168 113.562 187.716 113.514C188.396 112.704 193.39 106.458 191.525 99.6214C191.514 99.5838 191.511 99.5445 191.515 99.5057C191.52 99.4669 191.532 99.4294 191.552 99.3955C191.571 99.3616 191.597 99.3319 191.629 99.3083C191.66 99.2846 191.695 99.2675 191.733 99.2578C191.809 99.2377 191.89 99.2484 191.958 99.2874C192.026 99.3265 192.076 99.3908 192.097 99.4664C194.177 107.071 188.145 113.931 188.08 113.997C188.056 114.026 188.027 114.05 187.995 114.067C187.962 114.085 187.926 114.095 187.889 114.098C187.859 114.098 184.885 114.36 183.228 114.36Z" fill="#F09FBF"/>
<path d="M193.104 118.568C189.856 112.483 188.527 112.054 187.949 110.099C188.387 109.006 189.012 107.997 189.796 107.119C189.403 107.006 188.557 106.839 188.008 106.738C188.068 106.469 188.133 106.207 188.193 105.951C187.596 105.884 186.993 105.912 186.405 106.034V105.438C185.648 105.274 184.87 105.223 184.098 105.289C184.166 105.571 184.232 105.858 184.295 106.148C183.699 106.261 182.793 106.446 182.358 106.571C183.204 107.528 183.825 108.662 184.176 109.89C182.424 112.9 175.617 132.246 186.691 133.73C197.765 135.215 196.346 124.659 193.104 118.568Z" fill="#F09FBF"/>
<path opacity="0.4" d="M193.104 118.568C189.856 112.483 188.527 112.054 187.949 110.099C188.387 109.006 189.012 107.997 189.796 107.119C189.403 107.006 188.557 106.839 188.008 106.738C188.068 106.469 188.133 106.207 188.193 105.951C187.596 105.884 186.993 105.912 186.405 106.034V105.438C185.648 105.274 184.87 105.223 184.098 105.289C184.166 105.571 184.232 105.858 184.295 106.148C183.699 106.261 182.793 106.446 182.358 106.571C183.204 107.528 183.825 108.662 184.176 109.89C182.424 112.9 175.617 132.246 186.691 133.73C197.765 135.215 196.346 124.659 193.104 118.568Z" fill="white"/>
<path d="M183.723 109.312C183.654 109.619 183.624 109.934 183.634 110.248C183.634 110.469 184.23 110.618 184.891 110.683C185.553 110.749 188.33 110.856 188.241 110.546C188.151 110.236 188.378 109.813 188.39 109.551C188.402 109.289 187.287 109.277 186.351 109.312C185.416 109.348 183.908 108.979 183.723 109.312Z" fill="#F09FBF"/>
<path d="M177.28 131.716H177.828C177.936 131.716 178.019 131.656 178.013 131.591L177.757 129.207C177.757 129.135 177.656 129.082 177.542 129.082H177.012C176.905 129.082 176.821 129.135 176.827 129.207L177.083 131.591C177.072 131.668 177.167 131.716 177.28 131.716Z" fill="#F09FBF"/>
</svg>
