<svg width="24" height="18" viewBox="0 0 24 18" fill="none" xmlns="http://www.w3.org/2000/svg">
<path d="M21.25 3V2.75H21L3 2.75H2.75V3V15V15.25H3H21H21.25V15V3ZM0.25 3C0.25 1.48122 1.48122 0.25 3 0.25H21C22.5188 0.25 23.75 1.48122 23.75 3V15C23.75 16.5188 22.5188 17.75 21 17.75H3C1.48122 17.75 0.25 16.5188 0.25 15V3Z" fill="black" stroke="#FF8A65" stroke-width="0.5"/>
<path d="M17.75 13.25L6.25 13.25L6.25 10.75L17.75 10.75L17.75 13.25Z" fill="black" stroke="#FF8A65" stroke-width="0.5"/>
<path d="M10.25 8.75L4.75 8.75L4.75 6.25L10.25 6.25L10.25 8.75Z" fill="black" stroke="#FF8A65" stroke-width="0.5"/>
<path d="M14.75 8.75L12.25 8.75L12.25 6.25L14.75 6.25L14.75 8.75Z" fill="black" stroke="#FF8A65" stroke-width="0.5"/>
<path d="M19.25 8.75L16.75 8.75L16.75 6.25L19.25 6.25L19.25 8.75Z" fill="black" stroke="#FF8A65" stroke-width="0.5"/>
</svg>
